<svg xmlns="http://www.w3.org/2000/svg" width="1810" height="2400.125" viewBox="0 0 1810 2400.125">
  <defs>
    <style>
      .cls-1 {
        fill: #1a1b2a;
        fill-rule: evenodd;
      }
    </style>
  </defs>
  <path id="govips_black" data-name="govips black" class="cls-1" d="M3146,930c-129.79,0-235-105.213-235-235s105.21-235,235-235,235,105.213,235,235S3275.79,930,3146,930Zm-211.29,317-0.28.37a214.759,214.759,0,0,1,72.98,161.54c0,118.92-96.4,215.33-215.32,215.33a214.276,214.276,0,0,1-113.33-32.22l-0.06.07A462.067,462.067,0,0,0,2440,1526c-256.38,0-465,208.62-465,465s208.62,465,465,465c189.9,0,353.6-114.47,425.73-278.02H2634.72c-106.44,0-192.72-86.28-192.72-192.72v-0.54c0-106.44,86.28-192.72,192.72-192.72h481.56c106.44,0,192.72,86.28,192.72,192.72v0.54c0,1.92-.04,3.83-0.09,5.74H3309c-6,506.26-389.2,869-869,869-479.78,0-869-389.21-869-869,34.04-572.54,400.47-590.57,367.94-983.56A22.341,22.341,0,0,1,1969.78,985c103.94,43.576,220.85,181.9,220.85,181.9-126.21-481.363,274.85-651.826,427.29-705.66,19.05-6.732,35.38,12.677,27.4,31.2C2488.05,846.136,2707.12,1023.09,2934.71,1247Z" transform="translate(-1571 -459.875)"/>
</svg>
