<?xml version="1.0" encoding="utf-8"?>
<!-- Generator: Adobe Illustrator 21.1.0, SVG Export Plug-In . SVG Version: 6.00 Build 0)  -->
<svg version="1.1" id="Layer_1" xmlns="http://www.w3.org/2000/svg" xmlns:xlink="http://www.w3.org/1999/xlink" x="0px" y="0px"
	 viewBox="0 0 159.2 201.5" style="enable-background:new 0 0 159.2 201.5;" xml:space="preserve">
<style type="text/css">
	.st0{fill:#F8C763;}
	.st1{fill:#BE8D40;}
	.st2{fill:#0B0B0B;}
	.st3{fill:#1E8343;}
	.st4{fill:#FDFFFF;}
	.st5{fill:#D1E8E6;}
	.st6{fill:#1D6030;}
	.st7{fill:#FFFFFF;}
	.st8{fill:#D6DDDC;}
	.st9{fill:#D8B59B;}
	.st10{fill:#A78F76;}
	.st11{fill:#474840;}
	.st12{fill:#30302B;}
	.st13{fill:#C2C2C1;}
	.st14{opacity:0.23;}
	.st15{fill:#54385B;}
	.st16{fill:#E53A38;}
	.st17{fill:#AE2525;}
	.st18{fill:#72BF49;}
	.st19{fill:#2B1616;}
	.st20{fill:#DDDDDD;}
	.st21{fill:#E8E8E6;}
	.st22{fill:#C1C1C1;}
	.st23{fill:#666665;}
	.st24{fill:#1E120D;}
	.st25{fill:#4C4C4C;}
	.st26{fill:#5C657A;}
	.st27{fill:#C6C6C6;}
</style>
<g>
	<path class="st0" d="M132.6,19.3c-0.7,3.2-3.1,6-5.7,7.9c-2.4,1.8-6.4-0.7-8-2.7c-1.3-1.7,0-3.5,0.3-5.3c0.4-2.3,0.2-4.9,2.2-6.5
		c2.1-1.7,5.8-0.8,8.1,0.3C132,14.2,133.2,16.5,132.6,19.3z"/>
</g>
<g>
	<path class="st1" d="M122.4,14.8c-0.1-0.1-0.1-0.3,0-0.4c0.1-0.1,0.2-0.1,0.3-0.2c0.5-0.1,1-0.1,1.5-0.1c1.7,0.1,3.3,0.7,4.6,1.8
		c0.3,0.3,0.7,0.7,0.7,1.1c0,0.1,0,0.2-0.1,0.3c-0.1,0.1-0.2,0.1-0.3,0.1c-1.4,0.4-2.5,1.3-3.5,2.3c-0.5,0.5-0.9,1.1-1.2,1.7
		c-0.1,0.3-0.2,0.6-0.3,1c0,0.1,0,0.9-0.1,1c-0.3,0.2-0.6,0.4-1,0.5c-0.2-1.3,0.7-4,0.7-4.9c0-1-0.2-1.9-0.6-2.8
		c-0.1-0.3-0.3-0.7-0.5-1C122.6,15,122.4,14.9,122.4,14.8z"/>
</g>
<g>
	<path class="st2" d="M118.5,24.7c-1.1-1.4-0.6-2.9-0.2-4.2c0.2-0.5,0.3-1,0.4-1.4s0.1-0.9,0.2-1.3c0.2-2,0.5-4.1,2.2-5.5
		c2.5-2,6.6-0.8,8.6,0.3c2.7,1.4,3.9,3.9,3.3,6.8l0,0c-0.8,3.8-4,6.8-5.9,8.2c-0.8,0.6-1.7,0.8-2.6,0.7
		C122.2,28.1,119.7,26.2,118.5,24.7z M132.1,19.2c0.5-2.5-0.5-4.6-2.8-5.8c-2.4-1.2-5.7-1.8-7.6-0.4c-1.5,1.1-1.7,2.9-1.9,4.8
		c-0.1,0.5-0.1,0.9-0.2,1.3c-0.1,0.5-0.3,1.1-0.4,1.6c-0.4,1.2-0.7,2.3,0.1,3.3c1.4,1.8,5.1,4.3,7.3,2.6
		C128.4,25.4,131.4,22.7,132.1,19.2L132.1,19.2z"/>
</g>
<g>
	<path class="st2" d="M129.6,17.3c0,0-0.2,0-0.5,0s-0.7,0.1-1.3,0.2c-0.5,0.2-1.1,0.4-1.7,0.8s-1.1,0.9-1.5,1.4
		c-0.4,0.6-0.8,1.2-1.1,1.8c-0.3,0.6-0.4,1.3-0.4,1.8s0,1,0.1,1.3s0.1,0.5,0.1,0.5s0-0.2,0.1-0.5s0.1-0.7,0.3-1.2
		c0.3-0.9,0.9-2.1,1.7-3.1c0.4-0.5,0.8-1,1.3-1.4s0.9-0.7,1.4-1C128.9,17.5,129.6,17.3,129.6,17.3z"/>
</g>
<g>
	<path class="st2" d="M122.2,14.5c0,0,0.4,0.6,0.7,1.5c0.2,0.4,0.3,1,0.4,1.5c0.1,0.3,0.1,0.6,0.1,0.9s0,0.6,0,0.9
		c0,1.2-0.2,2.4-0.5,3.4c-0.1,0.5-0.3,0.8-0.4,1.1c-0.1,0.3-0.2,0.4-0.2,0.4s0.1-0.1,0.3-0.3c0.2-0.2,0.5-0.5,0.8-1
		c0.3-0.4,0.5-1,0.7-1.6s0.3-1.3,0.3-2c0-0.4,0-0.7-0.1-1c0-0.3-0.1-0.7-0.2-1c-0.2-0.6-0.5-1.2-0.8-1.6s-0.6-0.7-0.8-0.9
		C122.3,14.6,122.2,14.5,122.2,14.5z"/>
</g>
<g>
	<path class="st0" d="M81,4.3c0.3,3-1.1,6.1-2.8,8.4c-1.6,2.3-5.8,1.2-7.8-0.2c-1.6-1.1-1-3-1.2-4.7c-0.3-2.1-1.1-4.4,0.2-6.3
		c1.4-2.1,4.9-2.3,7.2-1.9C79,0.1,80.7,1.8,81,4.3z"/>
</g>
<g>
	<path class="st1" d="M70.8,3.2c-0.1-0.1-0.2-0.2-0.1-0.3c0-0.1,0.1-0.2,0.2-0.2c0.4-0.2,0.9-0.4,1.3-0.5c1.5-0.3,3.1-0.3,4.5,0.3
		c0.4,0.2,0.8,0.4,0.9,0.8c0,0.1,0,0.2,0,0.3s-0.1,0.1-0.2,0.2c-1.1,0.7-1.8,1.8-2.4,3c-0.3,0.6-0.5,1.2-0.5,1.8c0,0.3,0,0.6,0,0.9
		c0,0.1,0.2,0.8,0.2,0.9c-0.2,0.3-0.4,0.5-0.7,0.7c-0.5-1.1-0.5-3.6-0.8-4.5S72.5,5,71.9,4.3c-0.2-0.3-0.4-0.5-0.7-0.8
		C71,3.4,70.9,3.3,70.8,3.2z"/>
</g>
<g>
	<path class="st2" d="M70.1,13c-1.4-1-1.4-2.4-1.4-3.7c0-0.5,0-0.9-0.1-1.4c-0.1-0.4-0.1-0.8-0.2-1.2C68.2,5,67.8,3,69,1.3
		c1.7-2.4,5.6-2.5,7.7-2.1c2.8,0.5,4.6,2.4,4.8,5.1c0.4,3.6-1.7,7-2.9,8.8c-0.9,1.2-2.4,1.6-3.9,1.5C72.9,14.4,71.2,13.7,70.1,13z
		 M69.8,1.9c-0.9,1.4-0.6,3-0.3,4.7c0.1,0.4,0.2,0.8,0.2,1.2c0.1,0.5,0.1,1,0.1,1.5c0,1.2,0,2.2,0.9,2.8c1.7,1.2,5.6,2.4,7.1,0.3
		c1.2-1.6,3.1-4.8,2.7-8.1l0,0c-0.2-2.3-1.7-3.8-4-4.2C76.2,0,75.8,0,75.5,0C73.3-0.1,70.8,0.3,69.8,1.9z"/>
</g>
<g>
	<path class="st2" d="M77.8,3.4c0,0-0.2,0-0.4,0.1c-0.3,0.1-0.6,0.3-1.1,0.5c-0.4,0.3-0.9,0.7-1.2,1.1c-0.4,0.5-0.7,1.1-1,1.7
		c-0.2,0.6-0.4,1.3-0.4,1.9c0,0.6,0,1.2,0.2,1.7c0.1,0.5,0.3,0.9,0.4,1.1c0.1,0.2,0.2,0.4,0.2,0.4s0-0.2,0-0.4
		c0-0.3-0.1-0.7-0.1-1.1c0-0.9,0.2-2.1,0.6-3.2c0.2-0.6,0.5-1.1,0.8-1.6s0.6-0.9,0.9-1.2C77.3,3.8,77.8,3.4,77.8,3.4z"/>
</g>
<g>
	<path class="st2" d="M70.5,3c0,0,0.5,0.4,1,1.1c0.3,0.3,0.5,0.8,0.8,1.2c0.1,0.2,0.2,0.5,0.3,0.7c0.1,0.2,0.2,0.5,0.3,0.8
		c0.3,1.1,0.5,2.2,0.5,3.1c0,0.4,0,0.8,0,1.1s0,0.4,0,0.4s0.1-0.1,0.2-0.4c0.1-0.2,0.3-0.6,0.4-1c0.1-0.5,0.2-1,0.2-1.6
		s-0.1-1.2-0.3-1.8c-0.1-0.3-0.2-0.6-0.3-0.9c-0.1-0.3-0.3-0.6-0.5-0.8C72.8,4.4,72.4,4,72,3.7s-0.7-0.5-1-0.6
		C70.7,3.1,70.5,3,70.5,3z"/>
</g>
<g>
	<path class="st0" d="M83.5,164.7c-0.5,8.3-3.4,17.5-9.8,23.4c-2.1,1.9-4.1,2.9-6.9,2.2c-2.3-0.6-4.5-2-4.6-4.5
		c-0.2-7.1,3.5-14.2,6.1-20.8"/>
</g>
<g>
	<path class="st1" d="M69.9,185.8c-2,1.9-4.1,2.9-6.8,2.2c0.9,1.1,2.3,1.9,3.8,2.2c2.7,0.7,4.8-0.3,6.9-2.2c3.3-3.1,5.7-7,7.2-11.2
		c0.6-1.7,4.2-11,0.4-11c-2.1,0-2.5,2.5-2.9,3.9c-0.5,2-1.1,4-1.9,5.9C75.2,179.4,73,183,69.9,185.8z"/>
</g>
<g>
	<path class="st3" d="M77.8,183.6c-0.5-0.1-1.2-0.7-1.6-0.9c-1.5-0.7-3-1.4-4.5-1.9c-3-1-6.1-1.6-9.2-1.3c0.9-4.6,2.2-11.6,3.2-13.7
		c0.3-0.7,0.8-1.3,1.5-1.7c2.8-1.4,6.1-0.1,8.8,0.9c2.3,0.9,4.5,2,4.6,4.8c-0.2,2.4,0.1,4.7,0.2,7.1c0,0.7,0.1,1.4-0.2,2
		c-0.1,0.3-0.3,0.7-0.5,1c-0.3,0.7-0.5,1.4-0.7,2.1c-0.2,0.5-0.6,1.5-1.2,1.6C77.9,183.6,77.8,183.6,77.8,183.6z"/>
</g>
<g>
	<path class="st2" d="M83.5,164.7c0,0,0,0.2,0,0.7s0,1.1-0.1,2s-0.2,1.9-0.3,3.1c-0.2,1.2-0.4,2.5-0.8,3.9c-0.7,2.9-2,6.1-4,9.3
		c-1,1.6-2.2,3.1-3.6,4.5s-3.1,2.8-5.4,3c-1.1,0.1-2.2,0-3.2-0.4c-1-0.3-2-0.8-2.8-1.5s-1.5-1.7-1.7-2.8c-0.1-0.3-0.1-0.5-0.1-0.8
		V185c0-0.5,0-0.9,0.1-1.4c0.1-1.9,0.5-3.7,1-5.3s1-3.1,1.6-4.5c1.1-2.7,2.2-4.9,2.9-6.4c0.7-1.5,1.1-2.4,1.1-2.4s-0.3,0.9-0.9,2.5
		s-1.4,3.9-2.4,6.6c-0.5,1.4-0.9,2.9-1.3,4.5c-0.4,1.6-0.7,3.3-0.8,5.1c0,0.4,0,0.9,0,1.3v0.7c0,0.1,0,0.4,0.1,0.6
		c0.2,0.8,0.6,1.4,1.3,2c0.6,0.5,1.5,0.9,2.3,1.2c0.9,0.3,1.7,0.4,2.6,0.3c1.7-0.2,3.2-1.3,4.5-2.6s2.5-2.7,3.5-4.2s1.8-3,2.5-4.5
		s1.2-3,1.7-4.3c0.4-1.4,0.8-2.7,1.1-3.8c0.3-1.1,0.5-2.2,0.6-3s0.2-1.5,0.3-2C83.5,164.9,83.5,164.7,83.5,164.7z"/>
</g>
<g>
	<path class="st2" d="M61.9,179.5l1-5.7c0.4-1.9,0.7-3.8,1.3-5.7c0.3-0.9,0.5-1.9,1.1-2.9c0.3-0.5,0.6-1,1.2-1.3
		c0.1-0.1,0.2-0.2,0.4-0.3l0.3-0.1c0.2-0.1,0.5-0.2,0.8-0.3c1.1-0.3,2.2-0.3,3.2-0.1c1,0.1,2,0.4,3,0.7c0.9,0.3,1.8,0.7,2.8,1.1
		c0.9,0.4,1.9,0.9,2.7,1.6c0.6,0.6,1,1.3,1.3,2.1c-0.4,0.1-0.8,0.1-1.1,0.2c-0.2-0.6-0.5-1.1-1-1.5c-0.6-0.6-1.5-1-2.3-1.3
		c-0.9-0.3-1.8-0.7-2.7-1c-1.8-0.6-3.7-1-5.3-0.5c-0.2,0.1-0.3,0.1-0.6,0.2l-0.3,0.2c0,0-0.1,0.1-0.2,0.1c-0.3,0.2-0.5,0.5-0.7,0.9
		c-0.4,0.7-0.7,1.6-1,2.5c-0.5,1.8-0.9,3.7-1.3,5.6l-1.1,5c0.4,0,0.9,0,1.3,0c0.7,0,1.4,0.1,2.1,0.2c1.4,0.2,2.7,0.5,4,0.9
		s2.5,1,3.8,1.5c1.2,0.6,2.4,1.2,3.5,2c-1.2-0.6-2.4-1.1-3.7-1.6c-1.2-0.5-2.5-0.9-3.8-1.2s-2.6-0.6-3.9-0.7c-0.7-0.1-1.3-0.1-2-0.1
		s-1.3,0-1.9,0.1c-0.1,0-0.1,0-0.2,0C62,180.1,61.8,179.8,61.9,179.5L61.9,179.5z"/>
</g>
<g>
	<path class="st0" d="M147.8,162c3-4.3,4.8-9.3,6.4-14.4c3.9-12.5,0.7-26.1-0.3-38.8c-0.3-4.3-0.3-8.7-0.5-13.1
		c-0.3-6.6-1.1-13.2-2.6-19.7c-2.6-11.5-6.5-23.8-12.6-33.9c-2.5-4.1-5.4-8.1-8.3-11.8c-2.9-3.7-6-7.1-9.5-10.2
		c-6.1-5.4-14.8-9.6-22.7-11.3c-13.3-2.9-28.5-3-41.5,1.5c-16.9,5.9-26,23.7-26.4,41c-0.2,10.8-0.1,20.2,4,30.5
		c3.9,9.6,10.2,18.9,9.3,29.1c-0.9,9.9-2,20.1,0,29.9c1.9,9.2,4.7,16.3,11,23.5c8.2,9.4,18.6,14.5,31,16.5c5.4,0.8,10.9,1.2,16.3,1
		c7.1-0.4,14,0.3,21-1.4C133.3,177.7,141.7,170.9,147.8,162z"/>
</g>
<g>
	<path class="st4" d="M153.6,95.8c-0.1-3.9-0.4-7.8-1.3-11.8c-0.6-2.6-0.1-6.2-2.2-8.1c0.3,0.3-11.4,9.3-12.5,10
		c-4.7,3-9.7,5.6-14.8,7.6c-8.5,3.3-17.6,4.1-26,7.8c-1.5,0.7-3.1,1.4-4.6,2.1c-1.8,0.8-1.5,3-0.8,4.6c-0.4-0.9-1.4-1.4-2.2-1.9
		c-0.4-0.2-0.9-0.3-1.3-0.6c-0.4-0.4-0.5-1-0.8-1.5c-0.5-0.6-1.3-1-2-1.2c-3.8-1.3-7.8-1.6-11.6-2.5c-4-1-8.1-1.6-12.1-1.8
		c-2.9-0.2-5.6,0.4-8.4,0.2c-1.6-0.1-12.2,0-12.6-1.8c1.1,4.8,3.4,8.6,2.9,14c-0.9,9.9-2,20.1,0,29.9c1.9,9.2,4.7,16.3,11,23.5
		c8.2,9.4,18.6,14.5,31,16.5c5.4,0.8,10.9,1.2,16.3,1c7.1-0.4,14,0.3,21-1.4c10.7-2.6,19.1-9.3,25.3-18.3c3-4.3,4.8-9.3,6.4-14.4
		c3.9-12.5,0.7-26.1-0.3-38.8C153.6,104.3,153.7,100,153.6,95.8z"/>
</g>
<g>
	<path class="st1" d="M48.8,155.9c8.2,9.4,18.6,14.5,31,16.5c5.4,0.8,10.9,1.2,16.3,1c7.1-0.4,14,0.3,21-1.4
		c10.7-2.6,19.1-9.3,25.3-18.3c3-4.3,4.8-9.3,6.4-14.4c3.9-12.5,0.7-26.1-0.3-38.8c-0.3-4.3-0.3-8.7-0.5-13.1
		c-0.3-6.6-1.1-13.2-2.6-19.7c-2.5-10.8-6.1-22.3-11.6-32.1c1.5,2.2,3,4.4,4.4,6.6c6.1,10.1,10,22.4,12.6,33.9
		c1.5,6.5,2.3,13.1,2.6,19.7c0.2,4.4,0.2,8.7,0.5,13.1c0.9,12.7,4.2,26.3,0.3,38.8c-1.6,5-3.4,10-6.4,14.4
		c-6.2,9-14.6,15.7-25.3,18.3c-7.1,1.7-13.9,1.1-21,1.4c-5.4,0.3-10.9-0.1-16.3-1c-12.4-1.9-22.8-7-31-16.5
		c-2.8-3.2-4.9-6.4-6.6-9.8C48,154.9,48.4,155.4,48.8,155.9z"/>
</g>
<g>
	<path class="st5" d="M127.5,128.9c-4.3,0.6-8.5,1.1-12.5-1c-1.1-0.6-2.2-1.3-2.9-2.3c-0.7-1-1-2.4-0.5-3.6c1.2-2.7,7.4-3.4,10-4
		c3.8-0.9,7.6-1.6,11.4-2.7c2.9-0.9,5.8-1.9,8.5-3.4c1.8-1,5.9-3,6.1-5.2c0.5-6.5,0.9-12.8,0.6-19.3c-0.1-3.3-0.4-6.6-0.8-9.8
		c1.2-0.8,2.2-1.8,3.3-3c0.1,0.5,0.3,1.1,0.4,1.6c1.5,6.5,2.3,13.1,2.6,19.7c0.2,4.4,0.2,8.7,0.5,13.1c0.9,12.7,4.2,26.3,0.3,38.8
		c-1.6,5-3.4,10-6.4,14.4c-6.2,9-14.6,15.7-25.3,18.3c-7.1,1.7-13.9,1.1-21,1.4c-5.4,0.3-10.9-0.1-16.3-1c-12.4-1.9-22.8-7-31-16.5
		c-2.8-3.2-4.9-6.4-6.6-9.8c0.4,0.5,0.8,0.9,1.2,1.4c8.2,9.4,18.6,14.5,31,16.5c5.4,0.8,10.9,1.2,16.3,1c7.1-0.4,14,0.3,21-1.4
		c10.7-2.6,19.1-9.3,25.3-18.3c3-4.3,4.8-9.3,6.4-14.4c1.2-3.9,1.4-7.9,0.9-12c-0.3-2.7-1.5-3.5-4-2.6c-3,1.1-6.3,1.4-9.5,0.9
		c-0.6-0.1-3.4,2.1-4.2,2.4C130.6,128.4,129,128.7,127.5,128.9z"/>
</g>
<g>
	<path class="st3" d="M65.2,144.5c12.1,1,24.3,1.4,36.4,1.7c11.1,0.3,22.7,0.5,33.5-2.3c7-1.8,14.9-4.4,21-8.9
		c-0.1,4.3-0.6,8.5-1.9,12.6c-1.6,5-3.4,10-6.4,14.4c-6.2,9-14.6,15.7-25.3,18.3c-7.1,1.7-13.9,1.1-21,1.4c-5.4,0.3-10.9-0.1-16.3-1
		c-12.4-1.9-22.8-7-31-16.5c-6.1-6.9-8.9-13.8-10.8-22.6C50.6,143.5,58.3,144,65.2,144.5z"/>
</g>
<g>
	<path class="st6" d="M48.8,155.9c8.2,9.4,18.6,14.5,31,16.5c5.4,0.8,10.9,1.2,16.3,1c7.1-0.4,14,0.3,21-1.4
		c10.7-2.6,19.1-9.3,25.3-18.3c1.7-2.5,3-5.2,4.1-7.9c0.8-2,1.3-6.2,3.3-7.4c1.9-1.1,3.8-2.1,5.7-3.2c0.3-0.1,0.6-0.3,0.9-0.2
		c0,2-0.5,4.1-0.8,6.2c-0.3,2.3-0.8,4.5-1.4,6.7c-1.6,5-3.4,10-6.4,14.4c-6.2,9-14.6,15.7-25.3,18.3c-7.1,1.7-13.9,1.1-21,1.4
		c-5.4,0.3-10.9-0.1-16.3-1c-12.4-1.9-22.8-7-31-16.5c-2.8-3.2-4.9-6.4-6.6-9.8C48,154.9,48.4,155.4,48.8,155.9z"/>
</g>
<g>
	<path class="st2" d="M44.5,148.6l1.4-0.5c-0.5-1.7-1-3.4-1.5-5.4c6,1.4,12.2,1.9,18.2,2.4l2.5,0.2c12.3,1,24.6,1.4,36.4,1.7
		c11.7,0.3,23.1,0.4,33.7-2.4c5.6-1.5,13.6-3.9,20-8.1c0,0.3,0,0.5,0,0.8l1.5,0.1c0-0.8,0.1-1.6,0.1-2.3v-1.5l-1.2,0.9
		c-6.4,4.7-14.9,7.2-20.7,8.8c-10.4,2.7-21.7,2.6-33.3,2.3c-11.9-0.3-24.1-0.7-36.4-1.7l-2.5-0.2c-6.4-0.5-12.9-1-19.2-2.6l-1.2-0.3
		l0.3,1.2C43.2,144.4,43.8,146.5,44.5,148.6z"/>
</g>
<g>
	<path class="st2" d="M85.1,181.5c-13.1-2-23.4-7.5-31.5-16.7c-6.8-7.8-9.3-15.1-11.1-23.8c-1.9-9.4-1.1-19-0.2-28.4l0.2-1.8
		c0.7-7.4-2.7-14.6-6-21.4c-1.1-2.4-2.3-4.9-3.3-7.4c-4.2-10.3-4.3-20-4.1-30.8c0.3-16.2,8.8-35.3,27-41.5C68.3,5.5,83.2,5,98,8.2
		c8.2,1.8,17,6.2,23,11.5c3.3,2.9,6.4,6.2,9.6,10.3c3.3,4.2,6.1,8.2,8.3,11.9c5.3,8.7,9.6,20.2,12.7,34.1c1.4,6.2,2.2,12.7,2.6,19.8
		c0.1,1.7,0.1,3.4,0.2,5.2c0.1,2.6,0.1,5.3,0.3,7.9c0.2,3,0.6,6.1,0.9,9.2c1.2,9.9,2.4,20.2-0.7,29.9c-1.5,4.9-3.4,10.1-6.5,14.6
		l0,0c-6.7,9.7-15.6,16.2-25.7,18.6c-5,1.2-10,1.3-14.8,1.3c-2.1,0-4.2,0-6.3,0.1c-3,0.2-6,0.1-9.1-0.1
		C90.1,182.2,87.6,181.9,85.1,181.5z M56.6,11.1c-17.5,6-25.7,24.5-26.1,40.2c-0.2,10.5-0.1,20.1,4,30.2c1,2.4,2.1,4.9,3.3,7.3
		c3.3,7.1,6.8,14.3,6.1,22.2l-0.2,1.8c-0.8,9.2-1.7,18.8,0.2,27.9c1.7,8.5,4.3,15.6,10.8,23.1c7.8,8.9,17.8,14.2,30.6,16.2
		c5.8,0.9,11.1,1.2,16.1,1c2.2-0.1,4.3-0.1,6.4-0.1c5,0,9.6-0.1,14.5-1.3c9.8-2.4,18.4-8.6,24.9-18l0,0c3-4.3,4.8-9.4,6.3-14.2
		c2.9-9.3,1.8-19.5,0.6-29.2c-0.4-3-0.7-6.2-0.9-9.2c-0.2-2.7-0.3-5.3-0.3-8c0-1.7-0.1-3.4-0.2-5.1c-0.3-7.1-1.1-13.4-2.5-19.5
		c-3.1-13.7-7.3-25-12.6-33.6c-2.2-3.6-5-7.6-8.2-11.8c-3.1-4-6.2-7.3-9.4-10.1c-5.9-5.2-14.4-9.4-22.4-11.1
		C93.4,8.9,89.3,8.3,85.2,8C75,7.1,65.2,8.2,56.6,11.1z"/>
</g>
<g>
	<path class="st5" d="M64.5,120.3c-1.9-2.7-3.5-6.6-3.6-10c0-0.5,0-1,0.3-1.3c1.6-2.4,6.2,1.6,7.3,2.9c1.6,1.9,3.6,3.2,5.5,4.9
		c2.3,1.9,4.2,4.2,6.6,6c5.8,4.5,13.3,6.1,19.9,9.3c0.4,0.2,0.8,0.4,0.8,0.8c0.1,0.6-0.6,1-1.2,1.1c-2.9,0.8-5.8,1.6-8.8,1.2
		c-4.1-0.5-7.7-3-10.9-5.8c-1.5-1.3-3.1-2.7-5-3.3c-0.9-0.3-1.8-0.3-2.6-0.5C69.5,124.9,66.5,123,64.5,120.3z"/>
</g>
<g>
	<path class="st1" d="M56.5,71.1c0.1-0.3,0.2-0.6,0.3-0.8c0.1-0.3,0.3-0.5,0.4-0.7c0.1-0.1,0.2-0.2,0.3-0.3l0.2-0.2l0.1-0.1
		c0.9-0.8,1.9-1.1,2.9-1.3c0.4-0.1,0.7-0.2,1.1-0.2v-0.1c0-0.3,0.2-0.7,0.3-0.9c0.2-0.3,0.5-0.5,0.8-0.6s0.6-0.1,0.9-0.1
		c0.3,0,0.5,0.1,0.8,0.1l0.8,0.1c0.3,0.1,0.7,0.1,1,0.1c0.4,0,0.7,0,1.1,0h0.8c0.3,0,0.5,0,0.8,0s0.6,0.1,0.9,0.3
		c0.3,0.1,0.5,0.4,0.7,0.7c0.1,0.3,0.2,0.6,0.2,0.9c0.6,0.2,1.2,0.4,1.8,0.6c0.9,0.4,1.9,0.9,2.6,1.8l0.1,0.2l0.1,0.2
		c0.1,0.1,0.2,0.2,0.2,0.4c0.1,0.3,0.2,0.5,0.3,0.8c0.1,0.3,0.1,0.6,0.1,0.9s0,0.6-0.1,0.8c0,0.5,0,1-0.2,1.6
		c-0.1,0.3-0.2,0.5-0.4,0.8c-0.1,0.1-0.2,0.2-0.3,0.4c-0.1,0.1-0.1,0.1-0.2,0.2l-0.1,0.1c-0.1,0.1-0.2,0.2-0.4,0.3
		c-0.1,0.1-0.3,0.2-0.4,0.2c-0.3,0.1-0.6,0.2-0.8,0.3c-0.6,0.1-1.1,0.1-1.6,0c-0.4-0.1-0.7-0.1-1.1-0.2c0,0.4,0,1,0.1,1.6
		c0,0.5-0.1,1-0.3,1.6c-0.2,0.5-0.6,1-1.2,1.4c-0.5,0.4-1.2,0.7-1.9,0.7c-0.2,0-0.3,0-0.5,0h-0.5l-0.9-0.1l-0.9-0.1
		c-0.3,0-0.7-0.1-1-0.2c-0.7-0.2-1.2-0.6-1.7-1.1c-0.4-0.5-0.7-1.1-0.8-1.6c0.1-0.7,0.1-1,0.1-1.3c0-0.1,0-0.2,0-0.4
		c0-0.1,0-0.2,0.1-0.4c0.1-0.5,0.2-0.9,0.2-1.3c-0.3,0-0.7,0.1-1.1,0.1c-0.5,0-1.1,0-1.6-0.2c-0.3-0.1-0.5-0.2-0.8-0.4
		c-0.1-0.1-0.2-0.2-0.4-0.3c-0.1-0.1-0.2-0.2-0.3-0.3L57,75c-0.1-0.1-0.1-0.1-0.1-0.2c-0.1-0.1-0.2-0.3-0.2-0.4
		c-0.1-0.3-0.2-0.6-0.3-0.8c-0.1-0.5-0.1-1.1,0-1.6C56.4,71.7,56.4,71.4,56.5,71.1z"/>
</g>
<g id="tith_10_">
	<path class="st7" d="M64,79.4l1.4,0.1c2,0.1,3.8-1.4,3.9-3.4l0.1-1.4c0.1-2-1.4-3.8-3.4-3.9l-1.4-0.1c-2-0.1-3.8,1.4-3.9,3.4
		l-0.1,1.4C60.4,77.5,62,79.3,64,79.4z"/>
</g>
<g>
	<path class="st8" d="M60.6,75.7c0-0.1,0-0.1,0-0.2l0.1-1.4c0.1-2,1.9-3.6,3.9-3.4l1.4,0.1c2,0.1,3.6,1.9,3.4,3.9l-0.1,1.4
		c0,0.1,0,0.3-0.1,0.4C67,75.3,63.2,74.6,60.6,75.7z"/>
</g>
<g id="tith_9_">
	<path class="st2" d="M60.9,72.7c0,0,0,0.1-0.1,0.2s-0.2,0.3-0.2,0.6c-0.1,0.5-0.3,1.2-0.4,2.1c0,0.1,0,0.2-0.1,0.4
		c0,0.1,0,0.2,0,0.4c0,0.3,0,0.6,0.1,0.9c0.1,0.6,0.4,1.2,0.8,1.6c0.4,0.5,1,0.9,1.7,1.1c0.3,0.1,0.7,0.2,1,0.2l0.9,0.1l0.9,0.1H66
		c0.1,0,0.3,0,0.5,0c0.7-0.1,1.3-0.3,1.9-0.7c0.5-0.4,0.9-0.9,1.2-1.4c0.2-0.5,0.3-1.1,0.3-1.6c0-0.9-0.1-1.6-0.1-2.1
		c0-0.3-0.1-0.5-0.1-0.6s0-0.2,0-0.2s0,0.3-0.1,0.8s-0.3,1.2-0.4,2.1c-0.1,0.4-0.2,0.8-0.4,1.2c-0.2,0.4-0.6,0.7-0.9,0.9
		c-0.4,0.2-0.9,0.4-1.3,0.4c-0.1,0-0.2,0-0.4,0h-0.4l-0.9-0.1L64,79c-0.3,0-0.5,0-0.7-0.1c-0.4-0.1-0.9-0.4-1.2-0.7
		c-0.3-0.3-0.6-0.7-0.7-1.1c-0.1-0.2-0.1-0.4-0.1-0.6c0-0.1,0-0.2,0-0.3c0-0.1,0-0.2,0-0.3c0-0.9-0.1-1.6-0.1-2.1
		C60.9,73,60.9,72.7,60.9,72.7z"/>
</g>
<g>
	<path class="st9" d="M56.2,69.7c0-0.9,0.5-1.8,1.1-2.4s1.4-0.9,2.2-1.2c1-0.3,2.1-0.6,3.2-0.7c1.1-0.1,2-0.1,3,0.1
		c1,0,1.9,0.1,3,0.4s2.1,0.7,3.1,1.1c0.7,0.4,1.5,0.8,2,1.5s0.9,1.6,0.7,2.6c0,0.1,0,0.1,0,0.2c0.1,0.9-0.2,1.9-0.8,2.5
		c-1.2,1.3-2.8,0.8-4.2,0.6c-1.4-0.2-2.9-0.7-4.3-1c-1.5,0.1-2.9,0.3-4.4,0.4c-1.4,0-3.1,0.3-4.1-1.2c-0.5-0.7-0.6-1.7-0.4-2.6
		C56.2,69.9,56.2,69.8,56.2,69.7z"/>
</g>
<g>
	<path class="st10" d="M69,72.7c0.5,0.1,0.8,0,1.1-0.2c0.4-0.1,0.8-0.3,1.1-0.7c0.6-0.6,0.9-1.6,0.8-2.5c0-0.1,0-0.1,0-0.2
		c0.1-0.8-0.1-1.6-0.5-2.2c0.1,0,0.2,0.1,0.2,0.1c0.7,0.4,1.5,0.8,2,1.5s0.9,1.6,0.7,2.6c0,0.1,0,0.1,0,0.2c0.1,0.9-0.2,1.9-0.8,2.5
		c-1.2,1.3-2.8,0.8-4.2,0.6c-1.4-0.2-2.9-0.7-4.3-1c-1.5,0.1-2.9,0.3-4.4,0.4c-1.4,0-2.9,0.2-4-1C60.9,72,64.9,72,69,72.7z"/>
</g>
<g>
	<path class="st2" d="M56.2,69.9L56.2,69.9c-0.2,0.9-0.1,2,0.6,2.7c0.3,0.4,0.7,0.6,1.2,0.8c0.4,0.2,0.9,0.2,1.4,0.2s1-0.1,1.4-0.1
		c0.5,0,1-0.1,1.4-0.2c1-0.1,1.9-0.3,2.9-0.4l0,0h0.1c1,0.2,1.9,0.4,2.9,0.6c0.5,0.1,0.9,0.2,1.4,0.2l1.4,0.2c0.4,0,0.9,0,1.3,0
		c0.2,0,0.4-0.1,0.5-0.2c0.1,0,0.2-0.1,0.2-0.1c0.1-0.1,0.1-0.1,0.2-0.2l0.1-0.1l0.1-0.1c0.1-0.1,0.1-0.1,0.2-0.2
		c0.1-0.2,0.2-0.3,0.2-0.5c0.1-0.4,0.2-0.8,0.1-1.2v-0.1v-0.1c0.1-0.2,0.1-0.4,0.1-0.6s0-0.4-0.1-0.6s-0.1-0.4-0.2-0.6
		c0-0.1-0.1-0.2-0.1-0.3l-0.1-0.1l-0.1-0.1c-0.5-0.6-1.3-1.1-2.1-1.5c-0.8-0.4-1.7-0.8-2.6-1.1c-0.9-0.3-1.8-0.4-2.8-0.5l0,0l0,0
		c-0.9-0.2-1.9-0.3-2.8-0.2c-0.9,0.1-1.9,0.2-2.8,0.4c-0.9,0.2-1.9,0.5-2.6,1.1c-0.7,0.6-1.2,1.5-1.2,2.5L56.2,69.9z M57.4,67.2
		c0.7-0.6,1.7-1,2.6-1.3c0.9-0.3,1.9-0.5,2.8-0.7c1-0.1,2-0.1,2.9,0l0,0c1,0,2,0,3,0.2s2,0.5,2.9,0.9s1.9,0.9,2.6,1.8l0.1,0.2
		l0.1,0.2c0.1,0.1,0.2,0.2,0.2,0.4c0.1,0.3,0.2,0.5,0.3,0.8C75,70,75,70.3,75,70.6s0,0.6-0.1,0.9v-0.2c0,0.6,0,1.1-0.2,1.7
		c-0.1,0.3-0.2,0.5-0.4,0.8c-0.1,0.1-0.2,0.2-0.3,0.4c-0.1,0.1-0.1,0.1-0.2,0.2H74c-0.1,0.1-0.2,0.2-0.4,0.3
		c-0.1,0.1-0.3,0.2-0.4,0.2c-0.3,0.1-0.6,0.2-0.8,0.3c-0.6,0.1-1.1,0.1-1.6,0s-1-0.2-1.4-0.3c-0.5-0.1-1-0.2-1.4-0.4
		c-0.9-0.3-1.8-0.6-2.8-0.8h0.1c-0.9,0-1.9,0.1-2.9,0.1c-1,0.1-1.9,0-2.9,0c-0.5,0-1-0.1-1.4-0.3c-0.5-0.2-0.9-0.5-1.2-0.9
		c-0.7-0.8-0.7-1.8-0.5-2.8l0,0v-0.2C56.2,68.8,56.7,67.8,57.4,67.2z"/>
</g>
<g>
	<path class="st2" d="M74.5,71.3L74.5,71.3c0.1,0.9-0.2,2-0.9,2.6c-0.4,0.3-0.8,0.6-1.3,0.7s-1,0.1-1.5,0.1c-1-0.1-1.9-0.2-2.9-0.4
		c-1-0.2-1.9-0.4-2.8-0.6h0.1c-0.9,0.1-1.9,0.3-2.9,0.4c-0.5,0.1-1,0.1-1.5,0.2c-0.5,0-1,0.1-1.5,0.1s-1.1,0-1.6-0.2
		c-0.3-0.1-0.5-0.2-0.8-0.4c-0.1-0.1-0.2-0.2-0.4-0.3c-0.1-0.1-0.2-0.2-0.3-0.3l-0.1-0.1C56,73,56,73,56,72.9
		c-0.1-0.1-0.2-0.3-0.2-0.4c-0.1-0.3-0.2-0.6-0.3-0.8c-0.1-0.6-0.1-1.1,0-1.7v0.2c0-0.3,0-0.6,0.1-0.9s0.2-0.6,0.3-0.8
		c0.1-0.3,0.3-0.5,0.4-0.7c0.1-0.1,0.2-0.2,0.3-0.3l0.2-0.2l0.1-0.1c0.9-0.8,1.9-1.1,2.9-1.3c1-0.3,2-0.4,3-0.5s2,0,3,0.2l0,0
		c1,0,2,0.2,2.9,0.5s1.8,0.6,2.7,1.1c0.9,0.4,1.7,0.9,2.4,1.7c0.6,0.7,1,1.7,0.8,2.7L74.5,71.3z M73.7,68.5
		c-0.6-0.7-1.5-1.1-2.4-1.5s-1.8-0.6-2.7-0.8C67.7,66,66.7,66,65.8,66l0,0l0,0c-1-0.1-1.9-0.1-2.8,0c-0.9,0.1-1.9,0.4-2.8,0.7
		c-0.9,0.3-1.7,0.6-2.3,1.2L57.8,68l-0.2,0c-0.1,0.1-0.1,0.2-0.2,0.2c-0.1,0.2-0.2,0.3-0.3,0.5s-0.1,0.4-0.2,0.6
		c0,0.2-0.1,0.4,0,0.6V70v0.1c-0.1,0.4-0.1,0.8,0,1.2c0,0.2,0.1,0.4,0.2,0.5c0,0.1,0.1,0.2,0.1,0.2l0.1,0.1l0.1,0.1
		c0.1,0.1,0.1,0.1,0.2,0.2c0.1,0.1,0.1,0.1,0.2,0.2c0.2,0.1,0.3,0.2,0.5,0.3c0.4,0.1,0.8,0.2,1.2,0.2h1.4c0.5,0,0.9,0,1.4,0
		c1-0.1,1.9-0.1,2.9-0.2h0.1l0,0c1,0.2,1.9,0.5,2.8,0.8c0.5,0.1,0.9,0.3,1.4,0.4s0.9,0.2,1.4,0.3c0.5,0.1,1,0.1,1.4,0
		c0.5-0.1,0.9-0.3,1.3-0.6c0.8-0.6,1-1.7,1-2.6l0,0V71C74.7,70.1,74.3,69.2,73.7,68.5z"/>
</g>
<g>
	<path class="st11" d="M63.5,63.8c0.1,0,0.1,0,0.2,0c0.5,0,3,0.2,3.6,0.3c0.1,0,0.2,0,0.2,0c2.7,0.1,2.2,2.7,0.5,3.7
		c-0.8,0.4-1.7,0.4-2.6,0.4c-0.1,0-0.1,0-0.2,0s-0.1,0-0.2,0c-0.9-0.1-1.9-0.2-2.6-0.8C60.9,66.2,60.8,63.6,63.5,63.8z"/>
</g>
<g>
	<path class="st12" d="M62.6,65.6c0.7,0.5,1.7,0.7,2.6,0.8c0.1,0,0.1,0,0.2,0s0.1,0,0.2,0c0.9,0.1,1.9,0.1,2.6-0.4
		c0.5-0.3,0.8-0.7,1.1-1.1c0.5,0.9-0.1,2.2-1.2,2.8c-0.8,0.4-1.7,0.4-2.6,0.4c-0.1,0-0.1,0-0.2,0s-0.1,0-0.2,0
		c-0.9-0.1-1.9-0.2-2.6-0.8c-1-0.8-1.4-2.2-0.8-3C61.8,64.8,62.1,65.3,62.6,65.6z"/>
</g>
<g>
	<path class="st2" d="M62.4,63.9c-0.2,0-0.3,0.1-0.5,0.2c-0.1,0.1-0.2,0.2-0.3,0.4c-0.1,0.1-0.1,0.3-0.2,0.5c0,0.2,0,0.3,0,0.5
		c0,0.3,0.2,0.6,0.4,0.9c0.1,0.1,0.2,0.3,0.3,0.4s0.2,0.2,0.4,0.3c0.1,0.1,0.2,0.2,0.4,0.2c0.1,0.1,0.3,0.1,0.4,0.1
		c0.3,0.1,0.6,0.1,0.9,0.1c0.3,0,0.7,0,1,0l0,0l0,0c0.2,0,0.5,0,0.7,0s0.5,0,0.7,0s0.4-0.1,0.6-0.1c0.1,0,0.2-0.1,0.3-0.1
		c0,0,0.1-0.1,0.2-0.1l0.1-0.1c0.7-0.4,1.2-1.2,1.1-1.9c-0.1-0.2-0.1-0.3-0.3-0.5c-0.1-0.1-0.4-0.2-0.6-0.3
		c-0.1-0.1-0.2-0.1-0.4-0.1c-0.1,0-0.2-0.1-0.4-0.1l-0.8-0.1c-1-0.2-2-0.3-3.1-0.4C63.1,63.8,62.8,63.8,62.4,63.9z M66.5,63.9h0.8
		c0.3,0,0.5,0,0.8,0s0.6,0.1,0.9,0.3c0.3,0.1,0.5,0.4,0.7,0.7c0.1,0.3,0.2,0.7,0.2,1s-0.1,0.6-0.2,0.9c-0.3,0.6-0.6,1.1-1.2,1.4
		l-0.2,0.1l-0.2,0.1c-0.2,0.1-0.3,0.1-0.5,0.2c-0.3,0.1-0.6,0.1-0.9,0.2c-0.3,0-0.6,0-0.8,0c-0.3,0-0.5,0-0.8-0.1l0,0
		c-0.4,0-0.7-0.1-1.1-0.2s-0.7-0.2-1.1-0.4c-0.2-0.1-0.3-0.2-0.5-0.3c-0.1-0.1-0.3-0.3-0.4-0.4c-0.1-0.1-0.2-0.3-0.3-0.5
		s-0.2-0.3-0.3-0.5c-0.1-0.3-0.2-0.7-0.2-1.1c0-0.2,0-0.4,0.1-0.5c0-0.2,0.1-0.3,0.2-0.5c0.1-0.1,0.3-0.3,0.4-0.4
		c0.2-0.1,0.3-0.2,0.5-0.2c0.3-0.1,0.7-0.1,1-0.1C64.5,63.9,65.5,63.9,66.5,63.9z"/>
</g>
<g>
	<path class="st2" d="M68.5,64.3c0.2,0.1,0.3,0.2,0.5,0.3c0.1,0.1,0.3,0.2,0.3,0.4c0.1,0.2,0.1,0.3,0.2,0.5c0,0.2,0,0.4,0,0.5
		c0,0.4-0.2,0.7-0.4,1c-0.1,0.2-0.2,0.3-0.3,0.5c-0.1,0.1-0.3,0.3-0.4,0.4s-0.3,0.3-0.5,0.3c-0.2,0.1-0.4,0.2-0.5,0.2
		c-0.4,0.1-0.7,0.2-1.1,0.2s-0.7,0-1.1,0l0,0c-0.3,0-0.5,0-0.8,0s-0.6-0.1-0.8-0.1c-0.3-0.1-0.6-0.2-0.9-0.3
		c-0.1-0.1-0.3-0.1-0.4-0.3H62l-0.2-0.2c-0.5-0.4-0.8-1-0.9-1.6c-0.1-0.3-0.1-0.6-0.1-1c0-0.3,0.2-0.7,0.3-0.9
		c0.2-0.3,0.5-0.5,0.8-0.6s0.6-0.1,0.9-0.1c0.3,0,0.5,0.1,0.8,0.1l0.8,0.1c1,0.2,2,0.3,3.1,0.4C67.8,64.1,68.2,64.2,68.5,64.3z
		 M64.4,64h-0.8c-0.1,0-0.2,0-0.4,0c-0.1,0-0.3,0-0.4,0c-0.2,0-0.4,0.1-0.6,0.2c-0.2,0.1-0.3,0.3-0.4,0.4c-0.3,0.6,0.2,1.6,0.8,2.1
		l0.1,0.1l0.1,0.1c0.1,0,0.2,0.1,0.2,0.1c0.2,0.1,0.4,0.2,0.6,0.2c0.2,0.1,0.4,0.1,0.7,0.1c0.2,0,0.5,0.1,0.7,0.1l0,0l0,0
		c0.3,0.1,0.7,0.1,1,0.1s0.6,0,0.9,0c0.1,0,0.3,0,0.4-0.1c0.2,0,0.2-0.1,0.4-0.2c0.2-0.1,0.3-0.2,0.4-0.2c0.1-0.1,0.2-0.2,0.3-0.3
		c0.2-0.2,0.4-0.5,0.5-0.8c0-0.2,0.1-0.3,0.1-0.5s0-0.3-0.1-0.5s-0.2-0.3-0.3-0.4c-0.1-0.1-0.3-0.2-0.4-0.3c-0.3-0.2-0.7-0.2-1-0.2
		C66.5,64.1,65.4,64,64.4,64z"/>
</g>
<g>
	
		<rect x="61.4" y="76" transform="matrix(7.373234e-02 -0.9973 0.9973 7.373234e-02 -16.4344 135.3679)" class="st2" width="6.5" height="1"/>
</g>
<g>
	
		<ellipse transform="matrix(7.373234e-02 -0.9973 0.9973 7.373234e-02 36.0037 152.8875)" class="st7" cx="100.3" cy="57.1" rx="23.3" ry="23.3"/>
</g>
<g>
	<path class="st13" d="M118.6,58.4c0.9-12-7.5-22.5-19-24.6c0.8,0,1.7,0,2.5,0c12.8,0.9,22.4,12.1,21.5,24.9s-12.1,22.4-24.9,21.5
		c-0.8-0.1-1.7-0.2-2.5-0.3C107.9,79.5,117.7,70.3,118.6,58.4z"/>
</g>
<g>
	<path class="st2" d="M76.4,55.3c1-13.2,12.5-23.2,25.7-22.2s23.2,12.5,22.2,25.7S111.8,82,98.6,81S75.4,68.5,76.4,55.3z M77.9,55.4
		C77,67.7,86.3,78.6,98.7,79.5s23.2-8.4,24.1-20.8s-8.4-23.2-20.8-24.1C89.6,33.7,78.8,43,77.9,55.4z"/>
</g>
<g>
	
		<ellipse transform="matrix(7.373234e-02 -0.9973 0.9973 7.373234e-02 41.6673 160.2044)" class="st2" cx="107.1" cy="57.7" rx="4.5" ry="4.5"/>
</g>
<g>
	
		<ellipse transform="matrix(7.373234e-02 -0.9973 0.9973 7.373234e-02 42.9171 157.0885)" class="st7" cx="106" cy="55.4" rx="1" ry="1.3"/>
</g>
<g>
	
		<ellipse transform="matrix(7.373234e-02 -0.9973 0.9973 7.373234e-02 -14.6498 87.0698)" class="st7" cx="39.5" cy="51.4" rx="19.9" ry="19.9"/>
</g>
<g>
	<path class="st13" d="M55.1,52.6c0.7-10-6.2-18.9-15.9-20.6c0.7,0,1.4,0,2.1,0c10.7,0.8,18.8,10.1,18,20.9s-10.1,18.8-20.9,18
		c-0.7-0.1-1.4-0.1-2.1-0.3C46.2,70.3,54.4,62.6,55.1,52.6z"/>
</g>
<g>
	<path class="st2" d="M19,49.9c0.8-11.3,10.7-19.9,22.1-19S61,41.6,60.1,53C59.3,64.3,49.4,72.9,38,72S18.2,61.2,19,49.9z M20.5,50
		c-0.8,10.5,7.1,19.7,17.6,20.5s19.7-7.1,20.5-17.6S51.5,33.2,41,32.4C30.4,31.6,21.3,39.5,20.5,50z"/>
</g>
<g>
	
		<ellipse transform="matrix(7.373234e-02 -0.9973 0.9973 7.373234e-02 -9.8174 93.3185)" class="st2" cx="45.3" cy="51.9" rx="3.9" ry="3.9"/>
</g>
<g>
	<path class="st0" d="M106.2,166.4c-0.7,8.3,0.8,17.9,6.2,24.6c1.8,2.2,3.7,3.5,6.5,3.2c2.3-0.2,4.8-1.3,5.2-3.8
		c1.3-7-1.4-14.6-3-21.4"/>
</g>
<g>
	<path class="st1" d="M116.5,189.3c1.7,2.2,3.6,3.4,6.4,3.2c-1,1-2.6,1.5-4.1,1.6c-2.8,0.3-4.7-1-6.5-3.2c-2.8-3.5-4.6-7.8-5.5-12.2
		c-0.4-1.7-2.6-11.5,1.2-11c2.1,0.3,2.1,2.8,2.2,4.3c0.2,2.1,0.5,4.1,1,6.1C112.2,182.2,113.9,186.1,116.5,189.3z"/>
</g>
<g>
	<path class="st3" d="M123.6,178c0.2,0.7,0.4,1.5,0.5,2.2c0.1,1.3,0,2.7,0.1,4c-0.1-0.8-5.9-0.9-6.5-0.8c-2.3,0.1-4.6,0.6-6.8,1.5
		c-0.9,0.4-1.4,0.8-2.1-0.2c-0.6-0.9-0.9-2.3-1.2-3.3c-0.6-2-1-4-1.3-6s-0.9-4-1.2-6c-0.2-1-0.2-2.1,0.4-2.9c0.4-0.5,1-0.7,1.6-0.9
		c2.2-0.8,4.5-1.7,6.9-2.1c2-0.4,3.7-1,5.2,0.8c1.1,1.4,2.2,3.5,2.3,5.2c0.2,2.3,1,4.5,1.6,6.7C123.2,176.8,123.4,177.4,123.6,178z"
		/>
	<path class="st2" d="M106.2,166.4c0,0,0,0.2-0.1,0.7s-0.2,1.1-0.2,2c-0.1,0.9-0.1,1.9-0.1,3.1c0,1.2,0.1,2.5,0.2,4
		c0.3,2.9,1,6.4,2.6,9.8c0.8,1.7,1.7,3.4,2.9,5c1.1,1.6,2.7,3.2,4.9,3.8c1.1,0.3,2.2,0.3,3.2,0.1c1.1-0.2,2.1-0.5,3-1.1
		s1.7-1.4,2.1-2.5c0.1-0.3,0.1-0.5,0.2-0.8l0.1-0.7c0.1-0.5,0.1-0.9,0.1-1.4c0.1-1.9,0-3.7-0.2-5.4s-0.6-3.2-0.9-4.7
		c-0.7-2.9-1.5-5.2-2-6.8s-0.8-2.6-0.8-2.6s0.2,1,0.5,2.6c0.3,1.7,0.9,4.1,1.4,6.9c0.3,1.4,0.5,3,0.6,4.6s0.2,3.4,0,5.1
		c0,0.4-0.1,0.9-0.2,1.3l-0.1,0.7c0,0.1-0.1,0.4-0.2,0.5c-0.3,0.7-0.8,1.3-1.5,1.8c-0.7,0.4-1.6,0.7-2.4,0.8
		c-0.9,0.1-1.8,0.1-2.6-0.1c-1.7-0.4-3-1.7-4.1-3.2s-2.1-3-2.9-4.6s-1.4-3.2-1.9-4.8s-0.8-3.1-1.1-4.5c-0.2-1.4-0.4-2.7-0.5-3.9
		s-0.1-2.2-0.2-3.1c0-0.8,0-1.5,0-2C106.2,166.6,106.2,166.4,106.2,166.4z"/>
</g>
<g>
	
		<ellipse transform="matrix(7.373234e-02 -0.9973 0.9973 7.373234e-02 -8.8142 90.4964)" class="st7" cx="44.3" cy="50" rx="0.8" ry="1.1"/>
</g>
<g>
	<path class="st2" d="M109,185.1L109,185.1h0.3c0.5-0.3,1.1-0.6,1.7-0.8c0.6-0.3,1.2-0.5,1.8-0.7c0.6-0.2,1.3-0.4,1.9-0.5
		s1.3-0.2,2-0.3s1.3-0.1,2-0.1s1.3,0.1,2,0.2c0.7,0.1,1.3,0.2,1.9,0.4c0.5,0.1,0.9,0.3,1.4,0.5c0-0.8,0.1-1.6,0.2-2.5
		c0.2,1,0.4,2,0.6,3v0.1c0,0.2-0.2,0.3-0.4,0.3h-0.1c-0.6-0.1-1.2-0.2-1.8-0.3c-0.6-0.1-1.2-0.1-1.8-0.2c-0.6,0-1.2,0-1.8,0
		c-0.6,0-1.2,0.1-1.8,0.1c-0.6,0.1-1.2,0.2-1.8,0.3c-0.6,0.1-1.2,0.3-1.8,0.4c-0.6,0.2-1.2,0.3-1.8,0.5c-0.6,0.2-1.2,0.4-1.7,0.6
		h-0.1h-0.1h-0.7C108.8,185.8,108.9,185.4,109,185.1z"/>
</g>
<g>
	<path class="st2" d="M103,113.4c-3-1.2-5.8-3.1-8.1-4.8l-0.4-0.3c-1.4-1-3.4-2.4-3.8-4.2l0,0c-0.5-2,3.9-3.9,18.9-7.9
		c1.3-0.3,2.4-0.6,3.1-0.8c0.1,0,0.3-0.1,0.5-0.2c6.3-2,7.7-1.9,8.3-1.1c0.2,0.3,0.3,0.8-0.2,1.6l-7.1,8.8c-2.5,3.1-5,6.3-8.3,8.6
		c-0.4,0.3-0.8,0.5-1.4,0.6c-0.1,0-0.3,0-0.4,0C103.7,113.6,103.3,113.5,103,113.4z M113.7,96.6c-0.3,0.1-0.5,0.1-0.6,0.2
		c-0.7,0.2-1.8,0.5-3.1,0.9c-4.2,1.1-16.9,4.5-17.8,6.2c0.3,1.2,2,2.4,3.2,3.2l0.4,0.3c2.2,1.6,4.9,3.5,7.7,4.6
		c0.3,0.1,0.6,0.2,0.8,0.2c0.2,0,0.5-0.2,0.7-0.3c3.2-2.2,5.6-5.3,8-8.3l6.8-8.5C119,95.1,117.3,95.5,113.7,96.6z"/>
</g>
<g>
	<path class="st2" d="M74,115.3c-3.6-2-6.4-4.9-9.2-7.7l-7.9-8.1c-0.7-0.7-0.6-1.2-0.4-1.5c0.5-0.9,1.9-1.1,8.3,0.3
		c0.3,0.1,0.4,0.1,0.5,0.1c0.8,0.1,1.9,0.3,3.2,0.5c15.3,2.5,19.9,3.9,19.6,5.9l0,0c-0.2,1.8-2,3.4-3.3,4.5l-0.4,0.4
		c-2,1.8-4.6,4.1-7.5,5.6c-0.4,0.2-0.9,0.5-1.5,0.4h-0.1C74.8,115.7,74.4,115.5,74,115.3z M68.3,100.4c-1.3-0.2-2.5-0.4-3.2-0.5
		c-0.1,0-0.3-0.1-0.6-0.1c-3.7-0.8-5.5-0.9-6.3-0.9l7.6,7.8c2.7,2.7,5.4,5.6,8.8,7.4c0.2,0.1,0.5,0.3,0.7,0.3s0.5-0.1,0.8-0.3
		c2.7-1.4,5.2-3.5,7.2-5.4l0.4-0.4c1-0.9,2.6-2.3,2.8-3.5C85.6,103.2,72.6,101.1,68.3,100.4z"/>
</g>
<g>
	<path class="st2" d="M153.1,107.2c-0.1-2.5-0.1-4.9-0.2-7.3c0-1.4,0-2.7-0.1-4.1c-0.1-3.4-0.3-7.5-1.3-11.7
		c-0.2-0.9-0.3-1.8-0.4-2.7c-0.2-1.6-0.3-3.3-1.1-4.5c-2.8,2.7-12,9.4-12.1,9.5c-4.7,3-9.7,5.6-15,7.7c-0.9,0.4-1.9,0.7-2.8,1.1
		c-0.4,0.1-0.8-0.1-1-0.5c-0.1-0.4,0.1-0.8,0.5-1c0.9-0.3,1.9-0.7,2.8-1c5.1-2,10.1-4.6,14.7-7.6c1.3-0.8,11.2-8.4,12.2-9.6
		c0-0.1,0.1-0.2,0.2-0.3c0.3-0.3,0.8-0.3,1.1,0l0,0c1.6,1.5,1.8,3.9,2,6c0.1,0.9,0.2,1.8,0.3,2.5c1,4.3,1.2,8.5,1.3,12
		c0,1.4,0,2.7,0.1,4.1c0,2.3,0,4.8,0.2,7.2c0,0.4-0.3,0.8-0.7,0.8h-0.1C153.4,107.8,153.1,107.5,153.1,107.2z M149.6,76.4
		L149.6,76.4L149.6,76.4L149.6,76.4L149.6,76.4z M149.6,76.4L149.6,76.4L149.6,76.4z M149.6,76.4L149.6,76.4L149.6,76.4z"/>
</g>
<g>
	<path class="st2" d="M91.3,108.6c0.1,0,0.2,0,0.3-0.1c0.4-0.2,0.6-0.6,0.4-1l0,0l0,0c-0.5-1.1-0.5-2.5-0.2-3.7
		c0.1-0.4-0.1-0.8-0.5-0.9s-0.8,0.1-0.9,0.5c-0.2,0.7-0.3,1.5-0.3,2.2c-0.6-0.3-1.2-0.7-2-1.1c-0.4-0.2-0.8,0-1,0.4s0,0.8,0.4,1
		c2.6,1.2,3.1,1.9,3.2,2.2l0,0C90.8,108.4,91,108.6,91.3,108.6z"/>
</g>
<g>
	<path class="st2" d="M43.1,108.6L43.1,108.6c0.5,0,0.8-0.4,0.8-0.8c-0.2-2.4-0.9-4.5-1.6-6.6c-0.3-0.9-0.6-1.8-0.9-2.7
		c1.8,0.5,4.9,0.8,10,0.9c0.6,0,1.1,0,1.4,0c1.5,0.1,3,0,4.4-0.1h0.4c0.4,0,0.7-0.4,0.7-0.8s-0.4-0.7-0.8-0.7h-0.4
		c-1.4,0.1-2.8,0.2-4.2,0.1c-0.3,0-0.8,0-1.4,0c-7.9-0.2-10.1-0.8-10.5-1.2c-0.1-0.4-0.5-0.6-0.9-0.5s-0.7,0.5-0.6,0.9l0,0
		c0.4,1.6,0.9,3.1,1.3,4.6c0.7,2.1,1.3,4.1,1.6,6.3C42.5,108.3,42.8,108.6,43.1,108.6z"/>
</g>
<g>
	<path class="st2" d="M88.3,105.2c0,0,0.2,0.2,0.5,0.4c0.3,0.3,0.7,0.6,1.1,1.1s0.7,1.1,1,1.8c0.1,0.4,0.2,0.7,0.3,1.1
		c0.1,0.4,0.2,0.9,0.3,1.3c0.5,1.8,1.1,3.5,1.7,4.8c0.5,1.3,1,2.1,1,2.1s0.2-1,0.1-2.4c0-1.4-0.4-3.3-0.9-5
		c-0.1-0.4-0.2-0.8-0.4-1.3c-0.2-0.5-0.4-0.9-0.6-1.4c-0.5-0.8-1.2-1.5-1.8-1.9c-0.7-0.4-1.3-0.6-1.7-0.6
		C88.7,105.2,88.5,105.2,88.3,105.2C88.3,105.2,88.3,105.2,88.3,105.2z"/>
</g>
<g class="st14">
	<path class="st15" d="M66.1,52.2c-2-0.8-4-1.6-6-2.3c-7.7-3-15.7-5.3-23.8-6.6c-4.4-0.7-8.7-1-13.1-1.2c-0.2,0-0.5-0.1-0.5-0.3
		s0.1-0.3,0.2-0.5c2.9-3.5,5-5.8,9.3-7.9c4.7-2.3,9.7-3.8,14.3-6.1c4.3-2.2,8.3-4,13.2-4.4c7.9-0.7,14.7-1.2,22.6-0.2
		c6.5,0.7,13.1,1.7,19.6,2.5c5,0.6,9.9,1.9,14.6-0.5c1.9-1,3.8-1.9,5.7-2.9c1.1-0.6,2,1.2,2.4,1.9c1.9,2.9-2.4,5.1-4.5,6.1
		c-1.5,0.7-3,1.3-4.5,2c-2,0.8-2.5,1.4-3.4,3.4c-0.7,1.5-1.5,3-2.6,4.4c-2.1,2.8-4.7,5-7.6,6.9c-5.7,3.8-13.3,7.2-20.1,8.2
		C76.5,55.6,71.2,54.1,66.1,52.2z"/>
</g>
<g>
	<path class="st16" d="M89.4,42.2c1.6-0.9,3.2-1.8,4.8-2.9c5.8-3.8,11.4-8.6,14-15c-1.1,2.6-7.9,1.2-9.8,0.8
		c-4.8-0.9-9.8-0.9-14.6-1.6C73.3,21.9,63,19,52.8,16c-1.2-0.3-2.4-0.7-3.6-0.5c-1,0.2-1.9,0.7-2.7,1.2c-4.4,2.7-8.7,5.6-13.4,7.7
		s-9.8,3.2-14.2,5.8c-1.2,0.7-2.4,1.7-2.4,3.1c0,1.3,1.2,2.3,2.4,2.9c3.4,1.7,6.7,1.3,10.2,1c3.9-0.3,8.2,0.7,11.9,1.7
		c6.8,1.8,13.2,5.2,19.8,7.5c8.7,3.1,20.4,0.2,28.3-3.9C89.1,42.4,89.3,42.3,89.4,42.2z"/>
</g>
<g>
	<path class="st17" d="M56,29.1c-1.4-0.5-2.8-1.1-4.2-1.7c-2-0.8-4.1-1.8-5.6-3.3c-1.7-1.7-3.4-4.9-1.6-6.9c1.6-1.7,6.2-1.9,8.3-1.3
		c10.2,3,20.5,5.9,31.1,7.6c4.8,0.7,9.8,0.7,14.6,1.6c1.9,0.4,8.7,1.8,9.8-0.8c-1.6,3.9-4.3,7.2-7.5,10c-1.1,1-5.7,0.7-7.2,0.8
		c-2.6,0.2-5.2,0.2-7.8,0.1C75.8,35,65.5,32.7,56,29.1z"/>
</g>
<g>
	<path class="st2" d="M60.4,47.1c-2.6-0.9-5.2-2-7.8-3.1c-3.9-1.6-7.9-3.3-12-4.4c-3.9-1-8-2-11.7-1.7L28,38
		c-3.3,0.3-6.3,0.5-9.6-1.1c-1.8-0.9-2.8-2.2-2.8-3.6c0-1.4,0.9-2.6,2.8-3.7c2.8-1.6,5.9-2.7,8.9-3.8c1.8-0.6,3.7-1.3,5.4-2.1
		c3.5-1.5,6.8-3.6,10.1-5.6c1.1-0.7,2.2-1.4,3.3-2c1-0.6,1.9-1.1,3-1.3c1.4-0.2,2.8,0.2,4,0.5c10.9,3.2,20.8,6,31,7.5
		c2.1,0.3,4.4,0.5,6.5,0.7c2.7,0.2,5.5,0.4,8.1,1H99c6.5,1.3,8.4,0.5,8.7-0.4c0.2-0.4,0.6-0.6,1-0.4s0.6,0.6,0.4,1l0,0l0,0
		c-2.3,5.6-6.8,10.4-14.3,15.4C93,41.3,91.5,42.2,90,43l0,0l-0.5,0.2c-6,3.1-14.7,5.8-22.7,5.2C64.4,48.2,62.4,47.8,60.4,47.1z
		 M93.8,38.8c6.1-4,10.2-8,12.6-12.3c-2.1,0.5-5.2,0-7.9-0.5h-0.2c-2.6-0.5-5.3-0.7-8-0.9c-2.2-0.2-4.4-0.4-6.6-0.7
		c-10.3-1.6-20.2-4.4-31.1-7.6c-1-0.3-2.2-0.7-3.3-0.5c-0.8,0.1-1.6,0.6-2.4,1.1c-1.1,0.7-2.2,1.3-3.3,2c-3.3,2-6.7,4.1-10.3,5.7
		c-1.8,0.8-3.7,1.5-5.5,2.1c-2.9,1-5.9,2.1-8.6,3.7c-1.4,0.8-2.1,1.6-2.1,2.4c0,1.2,1.5,2,1.9,2.3c2.9,1.5,5.7,1.2,8.8,1l1-0.1
		c3.9-0.3,8.2,0.7,12.2,1.8c4.2,1.1,8.2,2.8,12.2,4.5c2.5,1.1,5.1,2.1,7.7,3.1c8.8,3.1,20.5-0.1,27.7-3.9l0.4-0.2
		C90.5,40.8,92,39.9,93.8,38.8z"/>
</g>
<g>
	<path class="st16" d="M49.3,9.9c0.5-0.1,0.9-0.2,1.4-0.3c1.7-0.2,3.4-0.2,5.1,0.1c-4,0.4,1.5,3.3,2.3,3.6c2.4,1,4.9,1.8,7.5,2.5
		c6.3,1.7,12.8,2.7,19.2,3.2c6.3,0.5,12.7,0.5,19-0.3c2.7-0.3,6.2-0.4,8-2.6c0.2-0.2,0.4-0.5,0.5-0.8c0.2-0.6,0-1.3-0.4-1.8
		c-0.5-0.8-1.3-1.4-2.2-1.6c3.6,0.4,7.3,1.7,10.4,3.8c2.5,1.7,4.8,4.4,2.8,7.4c-1.6,2.4-6.4,3.7-9,4.5c-9.7,2.9-20.3,3.1-30.4,2.4
		c-9.4-0.7-19-2.3-27.7-5.9c-3.6-1.5-15.7-7.2-10-12.5C46.9,10.7,48.1,10.2,49.3,9.9z"/>
</g>
<g>
	<g>
		<g>
			<path class="st17" d="M111.4,12.9c-0.5-0.4-1-0.8-1.6-1c0.7,0.1,1.5,0.2,2.2,0.4C111.8,12.5,111.6,12.7,111.4,12.9z"/>
		</g>
	</g>
	<g>
		<g>
			<path class="st17" d="M56.2,20.1c8.7,3.6,18.3,5.2,27.7,5.9c10,0.7,20.7,0.6,30.4-2.4c2.6-0.8,7.4-2.1,9-4.5c0,0,0-0.1,0.1-0.1
				c0.6,1.2,0.6,2.6-0.3,4.1c-1.6,2.4-6.4,3.7-9,4.5c-9.7,2.9-20.3,3.1-30.4,2.4c-9.4-0.7-19-2.3-27.7-5.9
				c-3.5-1.4-14.5-6.7-10.7-11.7C47.1,15.9,53.7,19,56.2,20.1z"/>
		</g>
	</g>
</g>
<g>
	<path class="st2" d="M55.6,24.7c-2.6-1.1-11.1-4.9-11.9-9.5c-0.3-1.5,0.3-2.9,1.7-4.2c0.9-0.9,2.2-1.5,3.7-1.9l0,0
		c0.5-0.1,1-0.1,1.5-0.2c1.8-0.2,3.5-0.2,5.3,0.1c0.4,0.1,0.6,0.4,0.6,0.8c0,0.4-0.3,0.7-0.7,0.7c-0.3,0-0.5,0.1-0.7,0.1
		c0.5,0.6,2.4,1.7,3.2,2.1c2.2,0.9,4.6,1.7,7.4,2.5c5.8,1.6,12.2,2.7,19.1,3.2c6.7,0.5,13,0.4,18.8-0.3c2.1-0.2,3.7-0.5,5.4-1.2
		c0.1-0.1,0.3-0.1,0.5-0.2c0.9-0.3,2.3-0.8,2.2-1.5c0-0.4-0.8-0.9-1.2-1.2l-0.2-0.2c-0.3-0.2-0.8-0.4-1.3-0.6
		c-0.3-0.1-0.5-0.2-0.8-0.3l-0.4-0.2c-0.5-0.3-1.4-0.7-1.9-0.7l0,0c-0.4,0-0.7-0.3-0.7-0.8c0-0.4,0.3-0.7,0.8-0.7l0,0
		c2.8,0,5.9,0.7,9.1,2c1.6,0.7,3.3,1.3,4.9,2.3c1.4,0.9,3.7,2.6,4.3,5c0.3,1.3,0,2.5-0.8,3.7c-1.7,2.5-6.2,3.8-8.9,4.7l-0.5,0.1
		c-8.4,2.5-18.4,3.3-30.6,2.4C72.5,29.9,63.4,27.9,55.6,24.7z M113.4,15c0.1,1.8-2,2.6-3.2,3c-0.2,0.1-0.3,0.1-0.4,0.2
		c-1.9,0.7-3.6,1-5.8,1.3c-5.9,0.7-12.4,0.8-19.1,0.3c-7-0.5-13.5-1.6-19.4-3.2c-2.8-0.8-5.3-1.6-7.6-2.6c0,0-4.5-2-4.2-3.8
		c-0.9,0-1.9,0-2.8,0.1c-0.5,0.1-0.9,0.1-1.3,0.2l0,0c-1.3,0.3-2.3,0.8-3.1,1.5c-1.1,1-1.5,2-1.3,3c0.5,3,6.3,6.4,11,8.4
		c7.6,3.1,16.6,5.1,27.5,5.9c12.1,0.9,21.9,0.1,30.1-2.3l0.5-0.1c2.5-0.8,6.7-2,8.1-4c0.6-0.9,0.8-1.7,0.6-2.6
		c-0.4-1.9-2.4-3.4-3.6-4.1c-1.5-0.9-3.1-1.6-4.7-2.2c-1-0.4-2-0.7-2.9-1C112.4,13.3,113.3,14,113.4,15z"/>
</g>
<g>
	<path class="st2" d="M127.4,148.3c0,0-0.2,0.3-0.5,1c-0.1,0.3-0.3,0.7-0.4,1.2c0,0.1-0.1,0.3-0.1,0.4v0.1v0.1v0.2
		c0,0.3-0.1,0.5-0.1,0.9c0,0.7,0,1.4,0.2,2.1c0.2,0.7,0.4,1.5,0.8,2.2s0.8,1.4,1.4,2.1c0.6,0.6,1.2,1.2,2,1.7
		c0.7,0.5,1.5,0.8,2.3,1.1s1.6,0.4,2.5,0.5c0.4,0,0.8,0.1,1.2,0c0.4,0,0.8-0.1,1.1-0.1c0.7-0.1,1.4-0.3,2-0.5c1.2-0.4,2.1-1,2.6-1.5
		c0.3-0.2,0.5-0.4,0.6-0.6c0.1-0.1,0.2-0.2,0.2-0.2s-0.4,0.2-1,0.4c-0.6,0.3-1.6,0.6-2.7,0.7c-0.6,0.1-1.2,0.1-1.8,0.1
		c-0.3,0-0.6,0-1-0.1c-0.4,0-0.7-0.1-1-0.1c-0.7-0.1-1.3-0.3-2-0.6s-1.3-0.6-1.9-1c-0.6-0.4-1.2-0.9-1.7-1.3c-0.5-0.5-0.9-1-1.3-1.6
		c-0.4-0.6-0.6-1.2-0.9-1.8c-0.2-0.6-0.4-1.2-0.5-1.7c-0.1-0.3-0.1-0.6-0.1-0.8V151v-0.1v-0.1c0-0.1,0-0.2,0-0.4
		c0-0.5,0-0.9,0.1-1.2C127.3,148.7,127.4,148.3,127.4,148.3z"/>
</g>
<g>
	<path class="st2" d="M59.7,146.8c0,0,0,0.3-0.1,0.9c0,0.3-0.1,0.6-0.1,1c0,0.2-0.1,0.4-0.1,0.6c0,0.2-0.1,0.4-0.2,0.7
		c-0.1,0.5-0.3,1-0.4,1.5c-0.2,0.5-0.4,1-0.6,1.5c-0.2,0.5-0.5,1-0.9,1.5c-0.3,0.5-0.7,0.9-1.1,1.4c-0.8,0.8-1.7,1.4-2.7,1.7
		c-0.2,0.1-0.5,0.1-0.7,0.1h-0.2l0,0l0,0h-0.1c-0.2,0-0.3,0-0.4,0c-0.5,0-0.9-0.2-1.3-0.3c-0.8-0.3-1.5-0.8-1.9-1.2
		s-0.7-0.6-0.7-0.6s0.1,0.3,0.4,0.9c0.3,0.5,0.8,1.3,1.7,1.9c0.4,0.3,1,0.6,1.6,0.8s1.3,0.3,2,0.1c0.7-0.1,1.5-0.3,2.1-0.7
		c0.7-0.3,1.2-0.8,1.8-1.3c0.5-0.5,1-1.1,1.3-1.7c0.4-0.6,0.6-1.3,0.8-1.9c0.2-0.6,0.3-1.3,0.4-1.8c0.1-0.6,0.1-1.2,0.1-1.7
		c0-0.2,0-0.5,0-0.7s-0.1-0.5-0.1-0.7c-0.1-0.4-0.1-0.8-0.2-1C59.9,147.1,59.7,146.8,59.7,146.8z"/>
</g>
<g>
	<g>
		<path class="st18" d="M24.3,179.3c-2.7-4.2-25-3-24.3,4.1C1.1,194.2,31.9,190.8,24.3,179.3z"/>
	</g>
	<g>
		<path class="st19" d="M18.9,164.4c0,0,2.3,3.1,0.7,5.2c-1.5,2.1-5.3,1.6-5.3,1.6l-3.1,11.1l-2.7-11.6c0,0-4.2,1.7-5.9-0.6
			c-1.8-2.3-1.1-5.3,0.6-6.1C4.9,163.2,14.7,160.4,18.9,164.4z"/>
		<path d="M8.1,171.6c-1.4,0.4-4.4,0.9-6-1.1c-1-1.3-1.4-3-1.1-4.6c0.3-1.2,1-2.2,1.9-2.6c1.3-0.6,11.8-3.9,16.4,0.5l0.1,0.1
			c0.1,0.1,2.5,3.6,0.7,6.1c-1.3,1.9-4.1,2-5.3,2l-3.7,13.3L8.1,171.6z M14.5,170.5c0,0,3.3,0.4,4.6-1.3c1.1-1.5-0.5-3.9-0.7-4.3
			c-3.8-3.5-13-1-14.7-0.2c-0.5,0.2-0.9,0.8-1.1,1.6c-0.3,1.1,0,2.4,0.8,3.3c1.4,1.8,5,0.4,5.1,0.3l0.8-0.3l2.2,9.6l2.5-8.8
			L14.5,170.5z"/>
	</g>
	<g>
		<g>
			
				<ellipse transform="matrix(9.736814e-02 -0.9952 0.9952 9.736814e-02 -149.4309 154.4156)" class="st20" cx="10.4" cy="159.6" rx="9.7" ry="9.7"/>
			<path d="M9.4,170c-2.8-0.3-5.3-1.6-7-3.8c-1.8-2.2-2.6-4.9-2.3-7.6c0.3-2.8,1.6-5.3,3.8-7s4.9-2.6,7.6-2.3c2.8,0.3,5.3,1.6,7,3.8
				c1.8,2.2,2.6,4.9,2.3,7.6c-0.3,2.8-1.6,5.3-3.8,7c-1.9,1.5-4.2,2.4-6.6,2.4C10.1,170.1,9.8,170,9.4,170z M4.8,152.7
				c-1.8,1.5-3,3.7-3.2,6l0,0c-0.2,2.4,0.5,4.7,2,6.5s3.7,3,6,3.2c2.4,0.2,4.7-0.5,6.5-2s3-3.7,3.2-6c0.2-2.4-0.5-4.7-2-6.5
				s-3.7-3-6-3.2c-0.3,0-0.6,0-0.9,0C8.4,150.7,6.4,151.4,4.8,152.7z"/>
		</g>
		<g>
			
				<ellipse transform="matrix(9.736814e-02 -0.9952 0.9952 9.736814e-02 -147.1925 154.8084)" class="st7" cx="11.8" cy="158.6" rx="7.5" ry="7.5"/>
		</g>
	</g>
</g>
<g>
	<g>
		<g>
			<g>
				<path class="st21" d="M129.7,94c0,0-80.9,96.8-82.7,99.2c-1.8,2.3-0.5,4.9,2.3,1.5c2.5-3.2,79.8-94.9,83.9-99.4
					C133.2,95.3,133.2,95.3,129.7,94z"/>
			</g>
			<g>
				<path class="st22" d="M100.9,129.5l-54.7,65.4c0,0-0.1,2.3,1.5,1l55.1-66.7L100.9,129.5z"/>
			</g>
		</g>
		<g>
			<g>
				<path class="st23" d="M100.1,128.3c0,0,1.5,3,4.2,3.1c0,0,28-31.4,32-36.9c0,0-5-4.3-6.3-2.7C130,91.8,117.8,108.3,100.1,128.3z
					"/>
			</g>
			<g>
				<path class="st24" d="M134.5,94.6l-3.4-1.9L100.5,129c0,0,1.2,1.8,2.5,2.1L134.5,94.6z"/>
			</g>
		</g>
		<g>
			<g>
				<path class="st25" d="M34.2,178.1c-4.3-1.3-12.4,4.7-13.2,10.7c-0.8,5.9,9.7,13,16.1,11.8s12.4-4.2,11.1-6.8
					C46.8,191.1,39.8,179.8,34.2,178.1z"/>
			</g>
			<g>
				<path class="st26" d="M34.4,180.5c-4.3-1.3-10,2.2-10.8,8.1c-0.8,5.9,7.6,12.1,14,10.9s11.9-3.1,10.5-5.7
					C46.8,191.1,40.1,182.1,34.4,180.5z"/>
			</g>
			<g>
				<path class="st27" d="M41.3,196.6c-1.2-0.9-2.2-1.7-3.8-2.1c-1.3-0.3-2.8-0.3-4.1-0.1c-1.9,0.3-5.2,1.5-6.9,0.3
					c-0.1-0.1,0-0.3,0.2-0.3c1.3,0.5,2.8,0.2,4.1,0c1.6-0.3,3.1-0.6,4.7-0.7c2.2-0.1,4.8,0.7,6.1,2.6
					C41.6,196.5,41.4,196.7,41.3,196.6z"/>
			</g>
			<g>
				<path class="st27" d="M44.6,197c-1.9-4.7-7.2-4.7-11.8-4.4c-1.9,0.1-3.8,0.1-5.7-0.4c-1.7-0.5-2.5-1.4-3.2-2.9
					c0-0.1,0.1-0.2,0.2-0.1c0.4,0.6,0.8,1.3,1.5,1.8c1,0.8,2.5,1,3.8,1.1c2.3,0.2,4.7-0.3,7-0.3c3.2,0,8.1,1.3,8.6,4.9
					C45.1,197.2,44.7,197.3,44.6,197z"/>
			</g>
		</g>
	</g>
	<g>
		<path d="M23.8,196.2c-2.6-2.5-3.9-5.1-3.5-7.5l0,0c0.4-3.3,3.1-7,6.8-9.4c2.7-1.8,5.4-2.4,7.3-1.9c5.4,1.6,11.4,10.9,13.2,13.9
			c5.7-6.9,31-37.3,52-62.4c-0.1-0.2-0.2-0.3-0.2-0.3c-0.1-0.3-0.1-0.6,0.1-0.8c17.5-19.8,29.7-36.3,29.9-36.5
			c0.3-0.4,0.7-0.6,1.3-0.6c2.1-0.2,5.5,2.7,6.1,3.2c0.3,0.3,0.3,0.7,0.1,1c-4,5.5-30.9,35.7-32.1,37c-0.2,0.2-0.4,0.3-0.6,0.2
			c-0.4,0-0.8-0.1-1.2-0.2c-23.5,27.8-51.7,61.3-53.2,63.2c-0.7,0.9-1.4,1.5-2,1.8c-1.9,1.8-6,3.5-10.7,4.4
			c-0.8,0.2-1.6,0.2-2.5,0.1C30.8,201.1,26.5,198.8,23.8,196.2z M103.1,130.4L103.1,130.4c0.1,0,0.2,0.1,0.2,0.1
			c0.2,0.1,0.5,0.2,0.7,0.2c2.7-3.1,26.4-29.7,31.3-36c-1.5-1.2-3.5-2.5-4.5-2.4c-0.2,0-0.2,0.1-0.2,0.1l0,0
			c-0.1,0.2-12.2,16.5-29.6,36.1c0,0.1,0.1,0.1,0.1,0.2c0.2,0.3,0.2,0.7,0,0.9c-22,26.3-49,58.8-53,63.6c-0.2,0.2-0.4,0.3-0.6,0.3
			l0,0c-0.2,0-0.5-0.2-0.6-0.4c-2.5-4.3-8.3-12.8-12.9-14.1c-1.5-0.4-3.8,0.2-6.1,1.7c-3.4,2.2-5.8,5.5-6.2,8.4l0,0
			c-0.3,1.9,0.8,4.1,3.1,6.2c3.5,3.3,8.7,5.3,12.1,4.7c4.4-0.8,8.4-2.5,10-4.1c0.1-0.1,0.2-0.1,0.3-0.2c0.2-0.1,0.8-0.4,1.5-1.3
			c1.5-1.9,30-35.7,53.6-63.6c0.2-0.2,0.4-0.3,0.6-0.3C103,130.3,103,130.3,103.1,130.4z"/>
	</g>
</g>
<g>
	<path class="st0" d="M138.3,119.8c-7.1,4.4-16.3,7.4-24.7,5.6c-2.7-0.6-4.8-1.7-5.8-4.3c-0.9-2.2-1-4.9,1-6.4
		c5.7-4.3,13.6-5.4,20.4-7.1"/>
</g>
<g>
	<path class="st1" d="M113.2,121c-2.7-0.6-4.7-1.7-5.8-4.2c-0.4,1.4-0.2,3,0.4,4.3c1,2.6,3.1,3.7,5.8,4.3c8.4,1.8,17.6-1.2,24.7-5.6
		l-2.4-3.3C129.1,120.3,120.8,122.6,113.2,121z"/>
</g>
<g>
	<path class="st2" d="M138.3,119.8c0,0-0.2,0.1-0.6,0.3c-0.4,0.2-1,0.5-1.8,0.9s-1.7,0.8-2.8,1.2c-1.1,0.5-2.3,0.9-3.7,1.3
		c-1.4,0.4-2.9,0.8-4.5,1.1c-1.6,0.3-3.3,0.5-5.1,0.5c-1.8,0.1-3.6-0.1-5.4-0.5c-1.8-0.3-3.6-0.9-4.7-2.2c-0.6-0.6-1-1.4-1.3-2.3
		c-0.3-0.8-0.4-1.7-0.4-2.5c0.1-0.8,0.3-1.6,0.9-2.2c0.1-0.1,0.3-0.3,0.4-0.4l0.6-0.4c0.4-0.3,0.7-0.5,1.1-0.8
		c1.5-0.9,3.1-1.7,4.6-2.3c1.5-0.6,3-1.1,4.4-1.5c2.8-0.8,5.1-1.4,6.8-1.9c1.6-0.5,2.6-0.8,2.6-0.8s-1,0.2-2.6,0.5
		c-1.7,0.3-4.1,0.7-6.9,1.3c-1.4,0.3-3,0.7-4.6,1.3c-1.6,0.6-3.3,1.3-4.9,2.2c-0.4,0.2-0.8,0.5-1.2,0.8l-0.6,0.4
		c-0.2,0.2-0.4,0.3-0.6,0.6c-0.8,0.8-1.2,1.9-1.3,3c-0.1,1.1,0.1,2.1,0.4,3.2c0.3,1,0.8,2,1.5,2.8c1.5,1.7,3.7,2.3,5.6,2.6
		c1.9,0.4,3.9,0.4,5.8,0.3c3.7-0.2,7.1-1.1,9.9-2.2c1.4-0.5,2.6-1.1,3.7-1.6c1.1-0.5,2-1.1,2.7-1.5s1.3-0.8,1.7-1.1
		C138.1,120,138.3,119.8,138.3,119.8z"/>
</g>
<g>
	<path class="st0" d="M76,121.5c5.6,6.2,13.7,11.5,22.3,12c2.8,0.2,5.1-0.4,6.8-2.6c1.4-1.8,2.3-4.4,0.7-6.4
		c-4.3-5.7-11.7-8.8-17.8-12.3"/>
</g>
<g>
	<path class="st1" d="M99.9,129.3c2.8,0.2,5-0.4,6.7-2.5c0,1.4-0.6,2.9-1.5,4.1c-1.7,2.2-4,2.8-6.8,2.6c-8.6-0.5-16.7-5.9-22.3-12
		l3.2-2.5C84.7,124.4,92.1,128.8,99.9,129.3z"/>
</g>
<g>
	<path class="st2" d="M76,121.5c0,0,0.2,0.2,0.5,0.5c0.3,0.4,0.7,0.9,1.3,1.5c0.6,0.6,1.3,1.4,2.2,2.2c0.9,0.8,1.9,1.7,3.1,2.6
		c2.4,1.7,5.4,3.5,8.9,4.7c1.8,0.6,3.7,1,5.6,1.2s4.2,0.2,6.1-1c0.9-0.6,1.7-1.4,2.2-2.3c0.6-0.9,1-1.9,1.2-2.9
		c0.2-1.1,0.1-2.3-0.4-3.2c-0.1-0.3-0.3-0.4-0.5-0.7l-0.4-0.5c-0.3-0.4-0.6-0.7-0.9-1.1c-1.3-1.4-2.7-2.5-4.1-3.5s-2.8-1.8-4.1-2.5
		c-2.6-1.4-4.8-2.4-6.3-3.2c-1.5-0.7-2.4-1.2-2.4-1.2s0.8,0.5,2.3,1.4s3.6,2.1,6,3.6c1.2,0.8,2.5,1.7,3.8,2.6c1.3,1,2.6,2.2,3.8,3.4
		c0.3,0.3,0.6,0.6,0.9,1l0.4,0.5c0.1,0.1,0.2,0.3,0.3,0.5c0.4,0.7,0.4,1.5,0.3,2.3c-0.2,0.8-0.5,1.6-1,2.4c-0.5,0.8-1.1,1.4-1.8,1.8
		c-1.4,0.9-3.3,1-5.2,0.9c-1.8-0.2-3.7-0.5-5.4-1c-1.7-0.5-3.3-1.2-4.8-1.9s-2.8-1.5-4.1-2.3c-1.2-0.8-2.3-1.6-3.2-2.3
		c-0.9-0.7-1.7-1.4-2.4-2c-0.6-0.6-1.1-1-1.5-1.3C76.2,121.6,76,121.5,76,121.5z"/>
</g>
<g>
	<path class="st4" d="M61.2,108.3c-0.9,5.4,4.8,8.9,8.6,11.7c1.1,0.8,2.6,2,3.9,2.4c0.6,0.2,0.6,0,1-0.4c0,0.1,0,0.3-0.1,0.4
		c1.6-1.7,3.5-3,5.3-4.4c2.9-2.1,5.8-4.2,8.8-6.3c0.1-0.6-0.5-1.2-1-1.6c-2.7-1.8-5.4-3.5-8.2-5.3c-1.9-1.2-3.9-2.5-6.1-3
		c-2.6-0.6-5.5-0.5-7.6,1.3"/>
</g>
<g>
	<path class="st2" d="M61.2,108.3c0,0.4-0.2,0.9-0.1,1.3c0,0.2,0,0.4,0,0.7l0.1,0.7c0.1,0.4,0.2,0.9,0.4,1.3s0.4,0.8,0.6,1.2
		c0.2,0.4,0.5,0.8,0.7,1.1c0.3,0.3,0.6,0.7,0.9,1c0.6,0.7,1.3,1.3,2,1.9c1.4,1.1,2.8,2.2,4.2,3.3c0.7,0.5,1.4,1.1,2.2,1.6
		c0.4,0.2,0.8,0.5,1.3,0.6l0.2,0.1c0,0,0.1,0,0.2,0.1c0.2,0,0.4,0.1,0.7-0.1c0.3-0.1,0.4-0.3,0.5-0.4l0.2-0.2l-1.1-0.6l-0.1,0.4
		c-0.1,0.4,0.2,0.7,0.6,0.8c0.2,0,0.4,0,0.6-0.2l0,0c2-2,4.5-3.6,6.9-5.4c2.4-1.7,4.8-3.5,7.2-5.2l0,0c0.1-0.1,0.2-0.3,0.3-0.4
		c0.1-0.5-0.1-1-0.3-1.3c-0.2-0.3-0.4-0.6-0.7-0.8c-0.3-0.2-0.5-0.3-0.8-0.5l-0.7-0.4l-2.8-1.8c-1.9-1.2-3.7-2.3-5.6-3.5
		c-1-0.6-2-1.1-3-1.5c-0.5-0.2-1.1-0.4-1.6-0.5c-0.6-0.1-1.1-0.2-1.7-0.3c-1.1-0.1-2.3,0-3.4,0.2c-1.1,0.3-2.1,0.8-2.9,1.6
		c1.8-1.3,4.1-1.6,6.2-1.2c0.5,0.1,1.1,0.2,1.6,0.4c0.5,0.2,1,0.3,1.5,0.6c1,0.4,1.9,1,2.8,1.6l5.5,3.7l2.8,1.8l0.7,0.5
		c0.2,0.2,0.5,0.3,0.6,0.4c0.3,0.2,0.5,0.7,0.5,0.7l0.3-0.4c-2.4,1.7-4.8,3.4-7.2,5.2c-2.4,1.7-4.9,3.4-7,5.6l1.1,0.6l0.1-0.4l0,0
		c0-0.4-0.2-0.7-0.6-0.7c-0.2,0-0.4,0.1-0.6,0.2c-0.1,0.2-0.4,0.4-0.3,0.3c0.1,0,0.1,0,0.1,0s0,0-0.1,0h-0.1
		c-0.4-0.1-0.7-0.3-1.1-0.5c-0.7-0.4-1.4-0.9-2.1-1.4c-1.5-1-2.9-2-4.3-3c-0.7-0.5-1.4-1.1-2-1.7c-0.3-0.3-0.6-0.6-0.9-0.9
		c-0.3-0.3-0.6-0.7-0.8-1c-0.3-0.3-0.5-0.7-0.7-1.1s-0.3-0.8-0.5-1.2l-0.2-0.6l-0.1-0.6C61.1,109.2,61.2,108.7,61.2,108.3z"/>
</g>
<g>
	<path class="st4" d="M153.1,111.3c-0.4,5.5-6.8,7.5-11.1,9.3c-1.3,0.5-3,1.4-4.4,1.4c-0.6,0-0.6-0.2-0.9-0.7c0,0.1,0,0.3,0,0.4
		c-1.1-2-2.7-3.8-4.2-5.5c-2.3-2.7-4.7-5.5-7-8.2c0-0.6,0.7-1.1,1.3-1.3c3.1-1.1,6.1-2.1,9.2-3.2c2.1-0.8,4.4-1.5,6.6-1.5
		c2.6,0,5.4,0.8,7.1,3"/>
</g>
<g>
	<path class="st2" d="M153.1,111.3c-0.1,0.4-0.1,0.9-0.3,1.3l-0.2,0.6l-0.3,0.6c-0.2,0.4-0.5,0.7-0.7,1.1c-0.3,0.3-0.6,0.6-0.9,0.9
		c-0.3,0.3-0.7,0.5-1,0.8c-0.4,0.2-0.7,0.5-1.1,0.7c-0.7,0.4-1.5,0.8-2.3,1.2c-1.6,0.7-3.2,1.3-4.9,1.9c-0.8,0.3-1.6,0.7-2.4,0.9
		c-0.4,0.1-0.8,0.2-1.2,0.2h-0.1c-0.1,0-0.1,0-0.1,0c-0.1,0,0,0,0.1,0c0.1,0.1-0.1-0.2-0.2-0.4c-0.2-0.3-0.6-0.4-0.9-0.3
		c-0.2,0.1-0.3,0.3-0.3,0.5l0,0v0.4l1.2-0.3c-1.5-2.7-3.6-4.9-5.5-7.1c-1.9-2.3-3.9-4.5-5.8-6.7l0.2,0.5c-0.1,0,0.3-0.4,0.6-0.6
		c0.1-0.1,0.4-0.2,0.7-0.3l0.8-0.3l3.1-1.1l6.2-2.3c1-0.4,2.1-0.7,3.1-0.9c0.5-0.1,1.1-0.2,1.6-0.2s1.1,0,1.6,0
		c2.1,0.1,4.3,0.9,5.7,2.6c-0.6-0.9-1.5-1.7-2.5-2.2s-2.1-0.9-3.2-1c-0.6-0.1-1.1-0.1-1.7-0.2c-0.6,0-1.1,0-1.7,0.1
		c-1.1,0.2-2.2,0.4-3.3,0.8c-2.1,0.7-4.2,1.3-6.3,2l-3.1,1l-0.8,0.3c-0.3,0.1-0.5,0.1-0.8,0.3c-0.3,0.1-0.6,0.3-0.9,0.6
		c-0.3,0.3-0.5,0.6-0.6,1.2c0,0.2,0.1,0.4,0.2,0.5l0,0c1.9,2.2,3.8,4.5,5.8,6.7c1.9,2.3,3.9,4.4,5.4,6.8l0,0
		c0.2,0.3,0.6,0.4,0.9,0.2c0.2-0.1,0.3-0.3,0.3-0.5v-0.4l-1.2,0.3l0.2,0.3c0.1,0.1,0.1,0.3,0.4,0.5c0.2,0.2,0.5,0.2,0.7,0.2
		c0.1,0,0.2,0,0.2,0h0.2c0.5,0,1-0.1,1.4-0.3c0.9-0.3,1.7-0.7,2.5-1c1.6-0.7,3.2-1.4,4.8-2.2c0.8-0.4,1.6-0.8,2.3-1.3
		c0.4-0.2,0.7-0.5,1.1-0.8c0.3-0.3,0.7-0.6,1-0.9s0.6-0.7,0.9-1c0.2-0.4,0.5-0.8,0.7-1.2l0.3-0.6c0.1-0.2,0.1-0.4,0.2-0.7
		C153,112.2,153,111.7,153.1,111.3z"/>
</g>
</svg>
