<?xml version="1.0" encoding="UTF-8" standalone="no"?>
<svg
   xmlns:dc="http://purl.org/dc/elements/1.1/"
   xmlns:cc="http://creativecommons.org/ns#"
   xmlns:rdf="http://www.w3.org/1999/02/22-rdf-syntax-ns#"
   xmlns:svg="http://www.w3.org/2000/svg"
   xmlns="http://www.w3.org/2000/svg"
   xmlns:sodipodi="http://sodipodi.sourceforge.net/DTD/sodipodi-0.dtd"
   xmlns:inkscape="http://www.inkscape.org/namespaces/inkscape"
   sodipodi:docname="SVG.svg"
   width="297mm"
   height="210mm"
   viewBox="0 0 297 210"
   version="1.1"
   id="svg878"
   inkscape:version="1.0 (4035a4fb49, 2020-05-01)"
   inkscape:export-filename="C:\Users\Infis\OneDrive\Desktop\example.png"
   inkscape:export-xdpi="96"
   inkscape:export-ydpi="96">
  <defs
     id="defs872">
    <filter
       inkscape:collect="always"
       style="color-interpolation-filters:sRGB"
       id="filter1842"
       x="-0.073497413"
       width="1.1469948"
       y="-0.07164842"
       height="1.1432968">
      <feGaussianBlur
         inkscape:collect="always"
         stdDeviation="1.7390795"
         id="feGaussianBlur1844" />
    </filter>
  </defs>
  <sodipodi:namedview
     id="base"
     pagecolor="#ffffff"
     bordercolor="#666666"
     borderopacity="1.0"
     inkscape:pageopacity="0.0"
     inkscape:pageshadow="2"
     inkscape:zoom="0.78227359"
     inkscape:cx="864.17803"
     inkscape:cy="419.80536"
     inkscape:document-units="mm"
     inkscape:current-layer="layer1"
     inkscape:document-rotation="0"
     showgrid="false"
     inkscape:window-width="1920"
     inkscape:window-height="1001"
     inkscape:window-x="-9"
     inkscape:window-y="-9"
     inkscape:window-maximized="1"
     inkscape:pagecheckerboard="true" />
  <metadata
     id="metadata875">
    <rdf:RDF>
      <cc:Work
         rdf:about="">
        <dc:format>image/svg+xml</dc:format>
        <dc:type
           rdf:resource="http://purl.org/dc/dcmitype/StillImage" />
        <dc:title />
      </cc:Work>
    </rdf:RDF>
  </metadata>
  <g
     inkscape:label="Layer 1"
     inkscape:groupmode="layer"
     id="layer1">
    <path
       d="M 54.177262,83.786297 A 28.394181,29.126847 0 0 0 25.783131,112.9132 28.394181,29.126847 0 0 0 54.177262,142.0401 28.394181,29.126847 0 0 0 66.866409,138.96949 V 121.78191 H 54.536931 v -5.57744 h 19.461348 v 5.57744 11.98738 A 28.394181,29.126847 0 0 0 82.571399,112.9132 28.394181,29.126847 0 0 0 54.177262,83.786297 Z m 15.247647,16.435173 a 5.6596169,5.0785075 0 0 1 0.0217,0 5.6596169,5.0785075 0 0 1 5.65961,5.07876 5.6596169,5.0785075 0 0 1 -5.65961,5.07824 5.6596169,5.0785075 0 0 1 -5.659602,-5.07824 5.6596169,5.0785075 0 0 1 5.637902,-5.07876 z"
       style="display:inline;fill:#000000;stroke:#3d0027;stroke-width:0;stroke-miterlimit:4;stroke-dasharray:none;stroke-dashoffset:0;filter:url(#filter1842)"
       id="path1265" />
    <text
       xml:space="preserve"
       style="font-style:normal;font-variant:normal;font-weight:normal;font-stretch:normal;font-size:47.006px;line-height:1.25;font-family:'Arial Rounded MT Bold';-inkscape-font-specification:'Arial Rounded MT Bold, Normal';font-variant-ligatures:normal;font-variant-caps:normal;font-variant-numeric:normal;font-variant-east-asian:normal;display:inline;fill:#4d4d4d;stroke-width:1.17515;"
       x="86.562027"
       y="142.99548"
       id="text12"
       transform="scale(1.0536374,0.94909312)"><tspan
         sodipodi:role="line"
         id="tspan24"
         x="86.562027"
         y="142.99548"
         style="fill:#4d4d4d;stroke-width:1.17515;">nfistyle</tspan></text>
    <text
       transform="matrix(0.98729764,0.00366359,-0.00551732,1.0128453,0,0)"
       id="text17"
       y="145.44585"
       x="79.775093"
       style="font-style:normal;font-variant:normal;font-weight:normal;font-stretch:normal;font-size:8.73034px;line-height:1.25;font-family:'Eras Medium ITC';-inkscape-font-specification:'Eras Medium ITC, Normal';font-variant-ligatures:normal;font-variant-caps:normal;font-variant-numeric:normal;font-variant-east-asian:normal;fill:#216778;stroke-width:0.409923;"
       xml:space="preserve"><tspan
         sodipodi:role="line"
         id="tspan1900"
         x="79.775093"
         y="145.44585"
         style="stroke-width:0.409923;fill:#216778;">The future under construction</tspan></text>
    <path
       id="path20-9"
       style="display:inline;fill:#216778;stroke:#3d0027;stroke-width:0;stroke-miterlimit:4;stroke-dasharray:none;stroke-dashoffset:0"
       d="m 58.564306,80.38467 a 28.394181,29.126847 0 0 0 -28.394131,29.12694 28.394181,29.126847 0 0 0 28.394131,29.1269 28.394181,29.126847 0 0 0 12.689147,-3.07061 V 118.38032 H 58.923975 v -5.57744 h 19.461348 v 5.57744 11.98738 a 28.394181,29.126847 0 0 0 8.57312,-20.85609 28.394181,29.126847 0 0 0 -28.394137,-29.12694 z m 15.247647,16.435177 a 5.6596169,5.0785075 0 0 1 0.0217,0 5.6596169,5.0785075 0 0 1 5.65961,5.078763 5.6596169,5.0785075 0 0 1 -5.65961,5.07827 5.6596169,5.0785075 0 0 1 -5.659602,-5.07827 5.6596169,5.0785075 0 0 1 5.637902,-5.078763 z" />
  </g>
</svg>
