<?xml version="1.0" encoding="iso-8859-1"?>
<!-- Generator: Adobe Illustrator 23.0.5, SVG Export Plug-In . SVG Version: 6.00 Build 0)  -->
<svg version="1.1" id="Camada_1" xmlns:sketch="http://www.bohemiancoding.com/sketch/ns"
	 xmlns="http://www.w3.org/2000/svg" xmlns:xlink="http://www.w3.org/1999/xlink" x="0px" y="0px" viewBox="0 0 31.229 29.139"
	 style="enable-background:new 0 0 31.229 29.139;" xml:space="preserve">
<title></title>
<desc></desc>
<g id="Page-1">
	<path style="fill-rule:evenodd;clip-rule:evenodd;fill:#231F20;" d="M20.729,4c-1.381,0-2.5,1.119-2.5,2.5c0,0.818,0.393,1.544,1,2
		v1.998c0,0.829,0.666,1.502,1.5,1.502c0.828,0,1.5-0.671,1.5-1.502V8.5c0.607-0.456,1-1.182,1-2C23.229,5.119,22.11,4,20.729,4z
		 M21.229,7.915v2.594c0,0.263-0.224,0.491-0.5,0.491c-0.268,0-0.5-0.22-0.5-0.491V7.915c-0.583-0.206-1-0.762-1-1.415
		c0-0.828,0.672-1.5,1.5-1.5s1.5,0.672,1.5,1.5C22.229,7.153,21.812,7.709,21.229,7.915z"/>
	<path style="fill-rule:evenodd;clip-rule:evenodd;fill:#231F20;" d="M28.229,0h-1h-1h-1h-9h-2h-1c-1.658,0.005-3,1.34-3,3.009
		v0.108h1V3.006C11.229,1.897,12.123,1,13.226,1h15.005c1.107,0,1.997,0.898,1.997,2.006v9.988c0,1.109-0.894,2.006-1.997,2.006
		H18.053v1H28.22c1.662,0,3.009-1.337,3.009-3.009V3.009C31.229,1.35,29.888,0.005,28.229,0z"/>
</g>
<g>
	<path style="fill:#231F20;" d="M14.669,7.023c-0.417,0-0.805,0.127-1.128,0.344V6.797c0-1.12-0.911-2.031-2.031-2.031
		c-0.429,0-0.827,0.135-1.155,0.363C10.202,4.158,9.363,3.412,8.35,3.412c-1.013,0-1.852,0.746-2.004,1.717
		C6.018,4.901,5.619,4.766,5.19,4.766c-1.12,0-2.031,0.911-2.031,2.031v5.989c-0.332-0.226-0.724-0.347-1.135-0.347
		C0.908,12.439,0,13.347,0,14.464v8.247c0,1.646,0.641,3.194,1.805,4.358l0.213,0.213c1.198,1.198,2.79,1.857,4.484,1.857h4.472
		c3.157,0,5.726-2.569,5.726-5.727V9.054C16.7,7.934,15.788,7.023,14.669,7.023L14.669,7.023z M15.797,23.412
		c0,2.66-2.164,4.824-4.824,4.824H6.502c-1.453,0-2.819-0.566-3.845-1.593L2.444,26.43c-0.994-0.994-1.541-2.315-1.541-3.72v-8.247
		c0-0.619,0.503-1.122,1.122-1.122c0.301,0,0.584,0.118,0.796,0.332c0.212,0.214,0.328,0.498,0.325,0.799
		c0,0.036,0.005,0.071,0.013,0.105v4.631c0,0.12,0.048,0.234,0.132,0.319l1.113,1.112c0.944,0.944,1.464,2.198,1.464,3.533
		c0,0.249,0.202,0.451,0.451,0.451c0.249,0,0.451-0.202,0.451-0.451c0-1.576-0.613-3.058-1.728-4.172l-0.98-0.98V6.797
		c0-0.622,0.506-1.128,1.128-1.128c0.622,0,1.128,0.506,1.128,1.128v8.801c0,0.249,0.202,0.451,0.451,0.451
		c0.249,0,0.451-0.202,0.451-0.451V5.443c0-0.622,0.506-1.128,1.128-1.128c0.622,0,1.128,0.506,1.128,1.128v10.381
		c0,0.249,0.202,0.451,0.451,0.451c0.249,0,0.451-0.202,0.451-0.451V6.797c0-0.622,0.506-1.128,1.128-1.128
		c0.622,0,1.128,0.506,1.128,1.128v2.031c0,0.026,0.003,0.051,0.008,0.075c-0.004,0.05-0.008,0.1-0.008,0.15v6.427
		c0,0.987,0.361,1.937,1.016,2.674c0.166,0.186,0.451,0.203,0.637,0.038c0.186-0.166,0.203-0.451,0.037-0.637
		c-0.508-0.572-0.789-1.309-0.789-2.075V9.054c0-0.622,0.506-1.128,1.128-1.128c0.622,0,1.128,0.506,1.128,1.128V23.412z
		 M15.797,23.412"/>
</g>
</svg>
